G04 ================== begin FILE IDENTIFICATION RECORD ==================*
G04 Layout Name:  D:/DORCA/FACULTATE/TCAD/allegro/PROIECT.brd*
G04 Film Name:    Fabrication*
G04 File Format:  Gerber RS274X*
G04 File Origin:  Cadence Allegro 17.2-S025*
G04 Origin Date:  Tue Feb 03 17:54:03 2026*
G04 *
G04 Layer:  MANUFACTURING/XSECTION_CHART*
G04 Layer:  MANUFACTURING/NCLEGEND-1-2*
G04 Layer:  BOARD GEOMETRY/DIMENSION*
G04 Layer:  BOARD GEOMETRY/DESIGN_OUTLINE*
G04 *
G04 Offset:    (0.0000 0.0000)*
G04 Mirror:    No*
G04 Mode:      Positive*
G04 Rotation:  0*
G04 FullContactRelief:  No*
G04 UndefLineWidth:     0.1000*
G04 ================== end FILE IDENTIFICATION RECORD ====================*
%FSLAX33Y33*MOMM*%
%IR0*IPPOS*OFA0.00000B0.00000*MIA0B0*SFA1.00000B1.00000*%
%AMMACRO10*
1,1,.1,1.6,0.0*
20,1,.1,1.6,0.0,1.575692,-.277837,0.0*
1,1,.1,1.575692,-.277837*
20,1,.1,1.575692,-.277837,1.503508,-.547232,0.0*
1,1,.1,1.503508,-.547232*
20,1,.1,1.503508,-.547232,1.385641,-.8,0.0*
1,1,.1,1.385641,-.8*
20,1,.1,1.385641,-.8,1.225671,-1.02846,0.0*
1,1,.1,1.225671,-1.02846*
20,1,.1,1.225671,-1.02846,1.02846,-1.225671,0.0*
1,1,.1,1.02846,-1.225671*
20,1,.1,1.02846,-1.225671,.8,-1.385641,0.0*
1,1,.1,.8,-1.385641*
20,1,.1,.8,-1.385641,.547232,-1.503508,0.0*
1,1,.1,.547232,-1.503508*
20,1,.1,.547232,-1.503508,.277837,-1.575692,0.0*
1,1,.1,.277837,-1.575692*
20,1,.1,.277837,-1.575692,0.0,-1.6,0.0*
1,1,.1,0.0,-1.6*
20,1,.1,0.0,-1.6,-.277837,-1.575692,0.0*
1,1,.1,-.277837,-1.575692*
20,1,.1,-.277837,-1.575692,-.547232,-1.503508,0.0*
1,1,.1,-.547232,-1.503508*
20,1,.1,-.547232,-1.503508,-.8,-1.385641,0.0*
1,1,.1,-.8,-1.385641*
20,1,.1,-.8,-1.385641,-1.02846,-1.225671,0.0*
1,1,.1,-1.02846,-1.225671*
20,1,.1,-1.02846,-1.225671,-1.225671,-1.02846,0.0*
1,1,.1,-1.225671,-1.02846*
20,1,.1,-1.225671,-1.02846,-1.385641,-.8,0.0*
1,1,.1,-1.385641,-.8*
20,1,.1,-1.385641,-.8,-1.503508,-.547232,0.0*
1,1,.1,-1.503508,-.547232*
20,1,.1,-1.503508,-.547232,-1.575692,-.277837,0.0*
1,1,.1,-1.575692,-.277837*
20,1,.1,-1.575692,-.277837,-1.6,0.0,0.0*
1,1,.1,-1.6,0.0*
20,1,.1,-1.6,0.0,-1.575692,.277837,0.0*
1,1,.1,-1.575692,.277837*
20,1,.1,-1.575692,.277837,-1.503508,.547232,0.0*
1,1,.1,-1.503508,.547232*
20,1,.1,-1.503508,.547232,-1.385641,.8,0.0*
1,1,.1,-1.385641,.8*
20,1,.1,-1.385641,.8,-1.225671,1.02846,0.0*
1,1,.1,-1.225671,1.02846*
20,1,.1,-1.225671,1.02846,-1.02846,1.225671,0.0*
1,1,.1,-1.02846,1.225671*
20,1,.1,-1.02846,1.225671,-.8,1.385641,0.0*
1,1,.1,-.8,1.385641*
20,1,.1,-.8,1.385641,-.547232,1.503508,0.0*
1,1,.1,-.547232,1.503508*
20,1,.1,-.547232,1.503508,-.277837,1.575692,0.0*
1,1,.1,-.277837,1.575692*
20,1,.1,-.277837,1.575692,0.0,1.6,0.0*
1,1,.1,0.0,1.6*
20,1,.1,0.0,1.6,.277837,1.575692,0.0*
1,1,.1,.277837,1.575692*
20,1,.1,.277837,1.575692,.547232,1.503508,0.0*
1,1,.1,.547232,1.503508*
20,1,.1,.547232,1.503508,.8,1.385641,0.0*
1,1,.1,.8,1.385641*
20,1,.1,.8,1.385641,1.02846,1.225671,0.0*
1,1,.1,1.02846,1.225671*
20,1,.1,1.02846,1.225671,1.225671,1.02846,0.0*
1,1,.1,1.225671,1.02846*
20,1,.1,1.225671,1.02846,1.385641,.8,0.0*
1,1,.1,1.385641,.8*
20,1,.1,1.385641,.8,1.503508,.547232,0.0*
1,1,.1,1.503508,.547232*
20,1,.1,1.503508,.547232,1.575692,.277837,0.0*
1,1,.1,1.575692,.277837*
20,1,.1,1.575692,.277837,1.6,0.0,0.0*
1,1,.1,1.6,0.0*
%
%ADD10MACRO10*%
%AMMACRO11*
1,1,.1,-.508,.3175*
20,1,.1,-.508,.3175,-.500282,.405713,0.0*
1,1,.1,-.500282,.405713*
20,1,.1,-.500282,.405713,-.477364,.491246,0.0*
1,1,.1,-.477364,.491246*
20,1,.1,-.477364,.491246,-.439941,.5715,0.0*
1,1,.1,-.439941,.5715*
20,1,.1,-.439941,.5715,-.389151,.644036,0.0*
1,1,.1,-.389151,.644036*
20,1,.1,-.389151,.644036,-.326536,.706651,0.0*
1,1,.1,-.326536,.706651*
20,1,.1,-.326536,.706651,-.254,.757441,0.0*
1,1,.1,-.254,.757441*
20,1,.1,-.254,.757441,-.173746,.794864,0.0*
1,1,.1,-.173746,.794864*
20,1,.1,-.173746,.794864,-.088213,.817782,0.0*
1,1,.1,-.088213,.817782*
20,1,.1,-.088213,.817782,0.0,.8255,0.0*
1,1,.1,0.0,.8255*
20,1,.1,0.0,.8255,.088213,.817782,0.0*
1,1,.1,.088213,.817782*
20,1,.1,.088213,.817782,.173746,.794864,0.0*
1,1,.1,.173746,.794864*
20,1,.1,.173746,.794864,.254,.757441,0.0*
1,1,.1,.254,.757441*
20,1,.1,.254,.757441,.326536,.706651,0.0*
1,1,.1,.326536,.706651*
20,1,.1,.326536,.706651,.389151,.644036,0.0*
1,1,.1,.389151,.644036*
20,1,.1,.389151,.644036,.439941,.5715,0.0*
1,1,.1,.439941,.5715*
20,1,.1,.439941,.5715,.477364,.491246,0.0*
1,1,.1,.477364,.491246*
20,1,.1,.477364,.491246,.500282,.405713,0.0*
1,1,.1,.500282,.405713*
20,1,.1,.500282,.405713,.508,.3175,0.0*
1,1,.1,.508,.3175*
20,1,.1,.508,.3175,.508,-.3175,0.0*
1,1,.1,.508,-.3175*
20,1,.1,.508,-.3175,.500282,-.405713,0.0*
1,1,.1,.500282,-.405713*
20,1,.1,.500282,-.405713,.477364,-.491246,0.0*
1,1,.1,.477364,-.491246*
20,1,.1,.477364,-.491246,.439941,-.5715,0.0*
1,1,.1,.439941,-.5715*
20,1,.1,.439941,-.5715,.389151,-.644036,0.0*
1,1,.1,.389151,-.644036*
20,1,.1,.389151,-.644036,.326536,-.706651,0.0*
1,1,.1,.326536,-.706651*
20,1,.1,.326536,-.706651,.254,-.757441,0.0*
1,1,.1,.254,-.757441*
20,1,.1,.254,-.757441,.173746,-.794864,0.0*
1,1,.1,.173746,-.794864*
20,1,.1,.173746,-.794864,.088213,-.817782,0.0*
1,1,.1,.088213,-.817782*
20,1,.1,.088213,-.817782,0.0,-.8255,0.0*
1,1,.1,0.0,-.8255*
20,1,.1,0.0,-.8255,-.088213,-.817782,0.0*
1,1,.1,-.088213,-.817782*
20,1,.1,-.088213,-.817782,-.173746,-.794864,0.0*
1,1,.1,-.173746,-.794864*
20,1,.1,-.173746,-.794864,-.254,-.757441,0.0*
1,1,.1,-.254,-.757441*
20,1,.1,-.254,-.757441,-.326536,-.706651,0.0*
1,1,.1,-.326536,-.706651*
20,1,.1,-.326536,-.706651,-.389151,-.644036,0.0*
1,1,.1,-.389151,-.644036*
20,1,.1,-.389151,-.644036,-.439941,-.5715,0.0*
1,1,.1,-.439941,-.5715*
20,1,.1,-.439941,-.5715,-.477364,-.491246,0.0*
1,1,.1,-.477364,-.491246*
20,1,.1,-.477364,-.491246,-.500282,-.405713,0.0*
1,1,.1,-.500282,-.405713*
20,1,.1,-.500282,-.405713,-.508,-.3175,0.0*
1,1,.1,-.508,-.3175*
20,1,.1,-.508,-.3175,-.508,.3175,0.0*
1,1,.1,-.508,.3175*
%
%ADD11MACRO11*%
%AMMACRO13*
1,1,.1,.635,0.0*
20,1,.1,.635,0.0,.3175,.549926,0.0*
1,1,.1,.3175,.549926*
20,1,.1,.3175,.549926,-.3175,.549926,0.0*
1,1,.1,-.3175,.549926*
20,1,.1,-.3175,.549926,-.635,0.0,0.0*
1,1,.1,-.635,0.0*
20,1,.1,-.635,0.0,-.3175,-.549926,0.0*
1,1,.1,-.3175,-.549926*
20,1,.1,-.3175,-.549926,.3175,-.549926,0.0*
1,1,.1,.3175,-.549926*
20,1,.1,.3175,-.549926,.635,0.0,0.0*
1,1,.1,.635,0.0*
%
%ADD13MACRO13*%
%AMMACRO14*
1,1,.1,.3937,0.0*
20,1,.1,.3937,0.0,.387719,-.068365,0.0*
1,1,.1,.387719,-.068365*
20,1,.1,.387719,-.068365,.369957,-.134653,0.0*
1,1,.1,.369957,-.134653*
20,1,.1,.369957,-.134653,.340954,-.19685,0.0*
1,1,.1,.340954,-.19685*
20,1,.1,.340954,-.19685,.301592,-.253065,0.0*
1,1,.1,.301592,-.253065*
20,1,.1,.301592,-.253065,.253065,-.301592,0.0*
1,1,.1,.253065,-.301592*
20,1,.1,.253065,-.301592,.19685,-.340954,0.0*
1,1,.1,.19685,-.340954*
20,1,.1,.19685,-.340954,.134653,-.369957,0.0*
1,1,.1,.134653,-.369957*
20,1,.1,.134653,-.369957,.068365,-.387719,0.0*
1,1,.1,.068365,-.387719*
20,1,.1,.068365,-.387719,0.0,-.3937,0.0*
1,1,.1,0.0,-.3937*
20,1,.1,0.0,-.3937,-.068365,-.387719,0.0*
1,1,.1,-.068365,-.387719*
20,1,.1,-.068365,-.387719,-.134653,-.369957,0.0*
1,1,.1,-.134653,-.369957*
20,1,.1,-.134653,-.369957,-.19685,-.340954,0.0*
1,1,.1,-.19685,-.340954*
20,1,.1,-.19685,-.340954,-.253065,-.301592,0.0*
1,1,.1,-.253065,-.301592*
20,1,.1,-.253065,-.301592,-.301592,-.253065,0.0*
1,1,.1,-.301592,-.253065*
20,1,.1,-.301592,-.253065,-.340954,-.19685,0.0*
1,1,.1,-.340954,-.19685*
20,1,.1,-.340954,-.19685,-.369957,-.134653,0.0*
1,1,.1,-.369957,-.134653*
20,1,.1,-.369957,-.134653,-.387719,-.068365,0.0*
1,1,.1,-.387719,-.068365*
20,1,.1,-.387719,-.068365,-.3937,0.0,0.0*
1,1,.1,-.3937,0.0*
20,1,.1,-.3937,0.0,-.387719,.068365,0.0*
1,1,.1,-.387719,.068365*
20,1,.1,-.387719,.068365,-.369957,.134653,0.0*
1,1,.1,-.369957,.134653*
20,1,.1,-.369957,.134653,-.340954,.19685,0.0*
1,1,.1,-.340954,.19685*
20,1,.1,-.340954,.19685,-.301592,.253065,0.0*
1,1,.1,-.301592,.253065*
20,1,.1,-.301592,.253065,-.253065,.301592,0.0*
1,1,.1,-.253065,.301592*
20,1,.1,-.253065,.301592,-.19685,.340954,0.0*
1,1,.1,-.19685,.340954*
20,1,.1,-.19685,.340954,-.134653,.369957,0.0*
1,1,.1,-.134653,.369957*
20,1,.1,-.134653,.369957,-.068365,.387719,0.0*
1,1,.1,-.068365,.387719*
20,1,.1,-.068365,.387719,0.0,.3937,0.0*
1,1,.1,0.0,.3937*
20,1,.1,0.0,.3937,.068365,.387719,0.0*
1,1,.1,.068365,.387719*
20,1,.1,.068365,.387719,.134653,.369957,0.0*
1,1,.1,.134653,.369957*
20,1,.1,.134653,.369957,.19685,.340954,0.0*
1,1,.1,.19685,.340954*
20,1,.1,.19685,.340954,.253065,.301592,0.0*
1,1,.1,.253065,.301592*
20,1,.1,.253065,.301592,.301592,.253065,0.0*
1,1,.1,.301592,.253065*
20,1,.1,.301592,.253065,.340954,.19685,0.0*
1,1,.1,.340954,.19685*
20,1,.1,.340954,.19685,.369957,.134653,0.0*
1,1,.1,.369957,.134653*
20,1,.1,.369957,.134653,.387719,.068365,0.0*
1,1,.1,.387719,.068365*
20,1,.1,.387719,.068365,.3937,0.0,0.0*
1,1,.1,.3937,0.0*
1,1,.1,-.164,-.1968*
20,1,.1,-.164,-.1968,0.0,.1969,0.0*
1,1,.1,0.0,.1969*
20,1,.1,0.0,.1969,.1641,-.1968,0.0*
1,1,.1,.1641,-.1968*
1,1,.1,.105,-.059*
20,1,.1,.105,-.059,-.1049,-.059,0.0*
1,1,.1,-.1049,-.059*
%
%ADD14MACRO14*%
%AMMACRO12*
1,1,.1,.5,0.0*
20,1,.1,.5,0.0,-.5,0.0,0.0*
1,1,.1,-.5,0.0*
1,1,.1,0.0,.5*
20,1,.1,0.0,.5,0.0,-.5,0.0*
1,1,.1,0.0,-.5*
%
%ADD12MACRO12*%
%ADD15C,.1*%
G75*
%LPD*%
G75*
G36*
G01X-50800Y51861D02*
Y46009D01*
X-50165D01*
Y6995D01*
X-50800D01*
Y1143D01*
X-46990D01*
Y6995D01*
X-47625D01*
Y46009D01*
X-46990D01*
Y51861D01*
X-50800D01*
G37*
G36*
G01X-55880Y1143D02*
Y6995D01*
X-40640D01*
Y1143D01*
X-55880D01*
G37*
G36*
G01Y46009D02*
Y51861D01*
X-40640D01*
Y46009D01*
X-55880D01*
G37*
G54D10*
X-44463Y63985D03*
X4500Y4500D03*
Y45500D03*
X65500Y4500D03*
G54D11*
X-44463Y70335D03*
X20320Y30480D03*
Y40640D03*
X50800Y30480D03*
Y40640D03*
G54D12*
X-44463Y76685D03*
X35560Y29220D03*
Y36820D03*
G54D13*
X-44463Y83035D03*
X5080Y35560D03*
Y38100D03*
X50800Y12700D03*
Y15240D03*
Y22860D03*
Y25400D03*
X64770Y35560D03*
Y38100D03*
G54D14*
X-44463Y89385D03*
X12700Y17780D03*
Y20320D03*
Y22860D03*
X25400Y12700D03*
Y13970D03*
Y15240D03*
X35560Y17780D03*
Y19050D03*
Y20320D03*
G54D15*
G01X-55394Y-1185D02*
Y-550D01*
X-55258D01*
X-55204Y-582D01*
X-55164Y-624D01*
X-55130Y-688D01*
X-55103Y-762D01*
X-55096Y-868D01*
X-55103Y-974D01*
X-55130Y-1048D01*
X-55164Y-1111D01*
X-55204Y-1154D01*
X-55258Y-1185D01*
X-55394D01*
G01X-54551D02*
X-54822D01*
Y-550D01*
X-54551D01*
G01X-54659Y-857D02*
X-54822D01*
G01X-54270Y-1101D02*
X-54216Y-1154D01*
X-54154Y-1185D01*
X-54100D01*
X-54046Y-1154D01*
X-54006Y-1101D01*
X-53985Y-1027D01*
X-53999Y-953D01*
X-54033Y-889D01*
X-54094Y-847D01*
X-54175Y-826D01*
X-54222Y-783D01*
X-54243Y-709D01*
X-54229Y-635D01*
X-54195Y-582D01*
X-54148Y-550D01*
X-54100D01*
X-54053Y-572D01*
X-54012Y-624D01*
G01X-53650Y-550D02*
X-53487D01*
G01X-53569D02*
Y-1185D01*
G01X-53650D02*
X-53487D01*
G01X-52969Y-868D02*
X-52834D01*
Y-1058D01*
X-52874Y-1122D01*
X-52922Y-1164D01*
X-52990Y-1185D01*
X-53057Y-1164D01*
X-53105Y-1122D01*
X-53145Y-1058D01*
X-53172Y-984D01*
X-53186Y-900D01*
Y-826D01*
X-53172Y-762D01*
X-53145Y-688D01*
X-53105Y-624D01*
X-53064Y-582D01*
X-53010Y-550D01*
X-52962D01*
X-52908Y-572D01*
X-52868Y-614D01*
G01X-52607Y-1185D02*
Y-550D01*
X-52295Y-1185D01*
Y-550D01*
G01X-51184Y-603D02*
X-51225Y-572D01*
X-51272Y-550D01*
X-51327D01*
X-51388Y-582D01*
X-51435Y-635D01*
X-51469Y-699D01*
X-51496Y-804D01*
X-51503Y-900D01*
X-51489Y-995D01*
X-51469Y-1058D01*
X-51428Y-1122D01*
X-51381Y-1164D01*
X-51333Y-1185D01*
X-51286D01*
X-51239Y-1164D01*
X-51198Y-1132D01*
X-51164Y-1090D01*
G01X-50910Y-1185D02*
Y-550D01*
X-50741D01*
X-50686Y-582D01*
X-50653Y-624D01*
X-50639Y-709D01*
X-50653Y-794D01*
X-50693Y-847D01*
X-50741Y-878D01*
X-50910D01*
G01X-50741D02*
X-50639Y-1185D01*
G01X-50216D02*
X-50270Y-1175D01*
X-50317Y-1132D01*
X-50358Y-1069D01*
X-50385Y-995D01*
X-50399Y-910D01*
Y-826D01*
X-50385Y-741D01*
X-50358Y-667D01*
X-50317Y-603D01*
X-50270Y-561D01*
X-50216Y-550D01*
X-50162Y-561D01*
X-50114Y-603D01*
X-50074Y-667D01*
X-50046Y-741D01*
X-50033Y-826D01*
Y-910D01*
X-50046Y-995D01*
X-50074Y-1069D01*
X-50114Y-1132D01*
X-50162Y-1175D01*
X-50216Y-1185D01*
G01X-49799Y-1101D02*
X-49745Y-1154D01*
X-49684Y-1185D01*
X-49630D01*
X-49576Y-1154D01*
X-49535Y-1101D01*
X-49515Y-1027D01*
X-49528Y-953D01*
X-49562Y-889D01*
X-49623Y-847D01*
X-49704Y-826D01*
X-49752Y-783D01*
X-49772Y-709D01*
X-49759Y-635D01*
X-49725Y-582D01*
X-49677Y-550D01*
X-49630D01*
X-49582Y-572D01*
X-49542Y-624D01*
G01X-49240Y-1101D02*
X-49186Y-1154D01*
X-49125Y-1185D01*
X-49071D01*
X-49017Y-1154D01*
X-48976Y-1101D01*
X-48956Y-1027D01*
X-48970Y-953D01*
X-49003Y-889D01*
X-49064Y-847D01*
X-49146Y-826D01*
X-49193Y-783D01*
X-49213Y-709D01*
X-49200Y-635D01*
X-49166Y-582D01*
X-49118Y-550D01*
X-49071D01*
X-49024Y-572D01*
X-48983Y-624D01*
G01X-48123Y-1101D02*
X-48069Y-1154D01*
X-48008Y-1185D01*
X-47954D01*
X-47899Y-1154D01*
X-47859Y-1101D01*
X-47838Y-1027D01*
X-47852Y-953D01*
X-47886Y-889D01*
X-47947Y-847D01*
X-48028Y-826D01*
X-48075Y-783D01*
X-48096Y-709D01*
X-48082Y-635D01*
X-48048Y-582D01*
X-48001Y-550D01*
X-47954D01*
X-47906Y-572D01*
X-47865Y-624D01*
G01X-47286Y-1185D02*
X-47557D01*
Y-550D01*
X-47286D01*
G01X-47395Y-857D02*
X-47557D01*
G01X-46714Y-603D02*
X-46755Y-572D01*
X-46802Y-550D01*
X-46856D01*
X-46917Y-582D01*
X-46965Y-635D01*
X-46998Y-699D01*
X-47026Y-804D01*
X-47032Y-900D01*
X-47019Y-995D01*
X-46998Y-1058D01*
X-46958Y-1122D01*
X-46910Y-1164D01*
X-46863Y-1185D01*
X-46816D01*
X-46768Y-1164D01*
X-46728Y-1132D01*
X-46694Y-1090D01*
G01X-46304Y-550D02*
Y-1185D01*
G01X-46460Y-550D02*
X-46148D01*
G01X-45827D02*
X-45664D01*
G01X-45745D02*
Y-1185D01*
G01X-45827D02*
X-45664D01*
G01X-45187D02*
X-45241Y-1175D01*
X-45288Y-1132D01*
X-45329Y-1069D01*
X-45356Y-995D01*
X-45370Y-910D01*
Y-826D01*
X-45356Y-741D01*
X-45329Y-667D01*
X-45288Y-603D01*
X-45241Y-561D01*
X-45187Y-550D01*
X-45132Y-561D01*
X-45085Y-603D01*
X-45044Y-667D01*
X-45017Y-741D01*
X-45004Y-826D01*
Y-910D01*
X-45017Y-995D01*
X-45044Y-1069D01*
X-45085Y-1132D01*
X-45132Y-1175D01*
X-45187Y-1185D01*
G01X-44784D02*
Y-550D01*
X-44472Y-1185D01*
Y-550D01*
G01X-43361Y-603D02*
X-43402Y-572D01*
X-43449Y-550D01*
X-43503D01*
X-43564Y-582D01*
X-43612Y-635D01*
X-43646Y-699D01*
X-43673Y-804D01*
X-43680Y-900D01*
X-43666Y-995D01*
X-43646Y-1058D01*
X-43605Y-1122D01*
X-43558Y-1164D01*
X-43510Y-1185D01*
X-43463D01*
X-43415Y-1164D01*
X-43375Y-1132D01*
X-43341Y-1090D01*
G01X-43094Y-1185D02*
Y-550D01*
G01X-42809D02*
Y-1185D01*
G01Y-868D02*
X-43094D01*
G01X-42562Y-1185D02*
X-42393Y-550D01*
X-42223Y-1185D01*
G01X-42284Y-963D02*
X-42501D01*
G01X-41969Y-1185D02*
Y-550D01*
X-41800D01*
X-41746Y-582D01*
X-41712Y-624D01*
X-41698Y-709D01*
X-41712Y-794D01*
X-41752Y-847D01*
X-41800Y-878D01*
X-41969D01*
G01X-41800D02*
X-41698Y-1185D01*
G01X-41275Y-550D02*
Y-1185D01*
G01X-41431Y-550D02*
X-41119D01*
G01X-55728Y-1397D02*
X-55321D01*
G01X-55169D02*
X-54762D01*
G01X-54610D02*
X-54204D01*
G01X-54051D02*
X-53645D01*
G01X-53492D02*
X-53086D01*
G01X-52934D02*
X-52527D01*
G01X-52375D02*
X-51968D01*
G01X-51816D02*
X-51410D01*
G01X-51257D02*
X-50851D01*
G01X-50698D02*
X-50292D01*
G01X-50140D02*
X-49733D01*
G01X-49581D02*
X-49174D01*
G01X-49022D02*
X-48616D01*
G01X-48463D02*
X-48057D01*
G01X-47904D02*
X-47498D01*
G01X-47346D02*
X-46939D01*
G01X-46787D02*
X-46380D01*
G01X-46228D02*
X-45822D01*
G01X-45669D02*
X-45263D01*
G01X-45110D02*
X-44704D01*
G01X-44552D02*
X-44145D01*
G01X-43993D02*
X-43586D01*
G01X-43434D02*
X-43028D01*
G01X-42875D02*
X-42469D01*
G01X-42316D02*
X-41910D01*
G01X-41758D02*
X-41351D01*
G01X-41199D02*
X-40792D01*
G01X-55245Y-1693D02*
Y-2328D01*
G01X-55401Y-1693D02*
X-55089D01*
G01X-54686Y-2328D02*
X-54740Y-2318D01*
X-54788Y-2276D01*
X-54828Y-2212D01*
X-54856Y-2138D01*
X-54869Y-2053D01*
Y-1969D01*
X-54856Y-1884D01*
X-54828Y-1810D01*
X-54788Y-1746D01*
X-54740Y-1704D01*
X-54686Y-1693D01*
X-54632Y-1704D01*
X-54585Y-1746D01*
X-54544Y-1810D01*
X-54517Y-1884D01*
X-54503Y-1969D01*
Y-2053D01*
X-54517Y-2138D01*
X-54544Y-2212D01*
X-54585Y-2276D01*
X-54632Y-2318D01*
X-54686Y-2328D01*
G01X-54127Y-1693D02*
Y-2328D01*
G01X-54283Y-1693D02*
X-53972D01*
G01X-53738Y-2328D02*
X-53569Y-1693D01*
X-53399Y-2328D01*
G01X-53460Y-2106D02*
X-53677D01*
G01X-53145Y-1693D02*
Y-2328D01*
X-52874D01*
G01X-51892Y-1693D02*
Y-2328D01*
G01X-52048Y-1693D02*
X-51736D01*
G01X-51476Y-2328D02*
Y-1693D01*
G01X-51191D02*
Y-2328D01*
G01Y-2011D02*
X-51476D01*
G01X-50856Y-1693D02*
X-50693D01*
G01X-50775D02*
Y-2328D01*
G01X-50856D02*
X-50693D01*
G01X-50067Y-1746D02*
X-50107Y-1715D01*
X-50155Y-1693D01*
X-50209D01*
X-50270Y-1725D01*
X-50317Y-1778D01*
X-50351Y-1842D01*
X-50378Y-1947D01*
X-50385Y-2043D01*
X-50372Y-2138D01*
X-50351Y-2201D01*
X-50311Y-2265D01*
X-50263Y-2307D01*
X-50216Y-2328D01*
X-50168D01*
X-50121Y-2307D01*
X-50080Y-2276D01*
X-50046Y-2233D01*
G01X-49806Y-2328D02*
Y-1693D01*
G01X-49549D02*
X-49806Y-2085D01*
G01X-49508Y-2328D02*
X-49691Y-1905D01*
G01X-49254Y-2328D02*
Y-1693D01*
X-48942Y-2328D01*
Y-1693D01*
G01X-48404Y-2328D02*
X-48675D01*
Y-1693D01*
X-48404D01*
G01X-48512Y-2000D02*
X-48675D01*
G01X-48123Y-2244D02*
X-48069Y-2297D01*
X-48008Y-2328D01*
X-47954D01*
X-47899Y-2297D01*
X-47859Y-2244D01*
X-47838Y-2170D01*
X-47852Y-2096D01*
X-47886Y-2032D01*
X-47947Y-1990D01*
X-48028Y-1969D01*
X-48075Y-1926D01*
X-48096Y-1852D01*
X-48082Y-1778D01*
X-48048Y-1725D01*
X-48001Y-1693D01*
X-47954D01*
X-47906Y-1715D01*
X-47865Y-1768D01*
G01X-47564Y-2244D02*
X-47510Y-2297D01*
X-47449Y-2328D01*
X-47395D01*
X-47340Y-2297D01*
X-47300Y-2244D01*
X-47280Y-2170D01*
X-47293Y-2096D01*
X-47327Y-2032D01*
X-47388Y-1990D01*
X-47469Y-1969D01*
X-47517Y-1926D01*
X-47537Y-1852D01*
X-47523Y-1778D01*
X-47490Y-1725D01*
X-47442Y-1693D01*
X-47395D01*
X-47347Y-1715D01*
X-47307Y-1768D01*
G01X-46304Y-1693D02*
X-46358Y-1715D01*
X-46399Y-1768D01*
X-46426Y-1831D01*
X-46446Y-1916D01*
X-46453Y-2011D01*
X-46446Y-2106D01*
X-46426Y-2191D01*
X-46399Y-2254D01*
X-46358Y-2307D01*
X-46304Y-2328D01*
X-46250Y-2307D01*
X-46209Y-2254D01*
X-46182Y-2191D01*
X-46162Y-2106D01*
X-46155Y-2011D01*
X-46162Y-1916D01*
X-46182Y-1831D01*
X-46209Y-1768D01*
X-46250Y-1715D01*
X-46304Y-1693D01*
G01X-45745Y-2350D02*
X-45759Y-2339D01*
Y-2318D01*
X-45745Y-2307D01*
X-45732Y-2318D01*
Y-2339D01*
X-45745Y-2350D01*
G01X-45315Y-1799D02*
X-45275Y-1736D01*
X-45227Y-1704D01*
X-45173Y-1693D01*
X-45105Y-1715D01*
X-45058Y-1768D01*
X-45044Y-1831D01*
X-45051Y-1894D01*
X-45078Y-1947D01*
X-45214Y-2053D01*
X-45275Y-2127D01*
X-45315Y-2233D01*
X-45329Y-2328D01*
X-45044D01*
G01X-44756Y-2064D02*
X-44709Y-1990D01*
X-44668Y-1947D01*
X-44614Y-1926D01*
X-44567Y-1947D01*
X-44533Y-1990D01*
X-44506Y-2053D01*
X-44499Y-2127D01*
X-44506Y-2191D01*
X-44533Y-2254D01*
X-44574Y-2307D01*
X-44621Y-2328D01*
X-44675Y-2307D01*
X-44723Y-2244D01*
X-44750Y-2148D01*
X-44756Y-2043D01*
X-44743Y-1905D01*
X-44723Y-1831D01*
X-44689Y-1757D01*
X-44641Y-1704D01*
X-44594Y-1693D01*
X-44546Y-1715D01*
X-44513Y-1768D01*
G01X-43988Y-2328D02*
Y-1693D01*
X-44238Y-2148D01*
X-43900D01*
G01X-43510Y-2328D02*
Y-1693D01*
X-43592Y-1820D01*
G01Y-2328D02*
X-43429D01*
G01X-43080Y-2064D02*
X-43033Y-1990D01*
X-42992Y-1947D01*
X-42938Y-1926D01*
X-42890Y-1947D01*
X-42857Y-1990D01*
X-42830Y-2053D01*
X-42823Y-2127D01*
X-42830Y-2191D01*
X-42857Y-2254D01*
X-42897Y-2307D01*
X-42945Y-2328D01*
X-42999Y-2307D01*
X-43046Y-2244D01*
X-43073Y-2148D01*
X-43080Y-2043D01*
X-43067Y-1905D01*
X-43046Y-1831D01*
X-43012Y-1757D01*
X-42965Y-1704D01*
X-42918Y-1693D01*
X-42870Y-1715D01*
X-42836Y-1768D01*
G01X-42010Y-2328D02*
Y-1693D01*
X-41834Y-2223D01*
X-41658Y-1693D01*
Y-2328D01*
G01X-41451D02*
Y-1693D01*
X-41275Y-2223D01*
X-41099Y-1693D01*
Y-2328D01*
G01X-55880Y6995D02*
Y46009D01*
X-40640D01*
Y6995D01*
X-55880D01*
G01Y60810D02*
Y111760D01*
X70104D01*
Y60810D01*
X-55880D01*
G01Y73510D02*
X70104D01*
G01X-55880Y67160D02*
X70104D01*
G01X-55880Y79860D02*
X70104D01*
G01X-55880Y86210D02*
X70104D01*
G01X-53085Y94148D02*
Y97322D01*
X-51589D01*
G01X-52140Y95788D02*
X-53085D01*
G01X-49660Y97322D02*
X-48715D01*
G01X-49187D02*
Y94148D01*
G01X-49660D02*
X-48715D01*
G01X-45801Y95735D02*
X-45014D01*
Y94782D01*
X-45250Y94465D01*
X-45526Y94253D01*
X-45919Y94148D01*
X-46313Y94253D01*
X-46589Y94465D01*
X-46825Y94782D01*
X-46982Y95153D01*
X-47061Y95576D01*
Y95947D01*
X-46982Y96264D01*
X-46825Y96635D01*
X-46589Y96952D01*
X-46352Y97164D01*
X-46038Y97322D01*
X-45762D01*
X-45447Y97217D01*
X-45211Y97005D01*
G01X-43754Y97322D02*
Y95047D01*
X-43597Y94571D01*
X-43282Y94253D01*
X-42888Y94148D01*
X-42494Y94253D01*
X-42179Y94571D01*
X-42022Y95047D01*
Y97322D01*
G01X-40526Y94148D02*
Y97322D01*
X-39542D01*
X-39226Y97164D01*
X-39030Y96952D01*
X-38951Y96529D01*
X-39030Y96105D01*
X-39266Y95841D01*
X-39542Y95682D01*
X-40526D01*
G01X-39542D02*
X-38951Y94148D01*
G01X-35801D02*
X-37376D01*
Y97322D01*
X-35801D01*
G01X-36431Y95788D02*
X-37376D01*
G01X-55880Y92560D02*
X70104D01*
G01X-55880Y98910D02*
X70104D01*
G01X-55880Y105260D02*
X70104D01*
G01X-48895Y52700D02*
X-49530D01*
X-49403Y52618D01*
G01X-48895D02*
Y52781D01*
G01X-49107Y53170D02*
Y53346D01*
G01X-49424Y53688D02*
X-49488Y53729D01*
X-49519Y53777D01*
X-49530Y53831D01*
X-49509Y53898D01*
X-49456Y53946D01*
X-49392Y53959D01*
X-49329Y53953D01*
X-49276Y53926D01*
X-49170Y53790D01*
X-49096Y53729D01*
X-48990Y53688D01*
X-48895Y53675D01*
Y53959D01*
G01X-40014Y4704D02*
Y4069D01*
X-39742D01*
G01X-39448Y4598D02*
X-39407Y4662D01*
X-39360Y4693D01*
X-39306Y4704D01*
X-39238Y4683D01*
X-39190Y4630D01*
X-39177Y4566D01*
X-39184Y4503D01*
X-39211Y4450D01*
X-39346Y4344D01*
X-39407Y4270D01*
X-39448Y4164D01*
X-39461Y4069D01*
X-39177D01*
G01X-38147Y4408D02*
X-38120Y4439D01*
X-38100Y4492D01*
X-38086Y4566D01*
X-38100Y4630D01*
X-38127Y4672D01*
X-38174Y4704D01*
X-38357D01*
Y4069D01*
X-38134D01*
X-38086Y4111D01*
X-38059Y4175D01*
X-38046Y4249D01*
X-38059Y4323D01*
X-38100Y4386D01*
X-38147Y4408D01*
X-38357D01*
G01X-37643Y4069D02*
X-37697Y4080D01*
X-37744Y4122D01*
X-37785Y4185D01*
X-37812Y4259D01*
X-37826Y4344D01*
Y4429D01*
X-37812Y4513D01*
X-37785Y4588D01*
X-37744Y4651D01*
X-37697Y4693D01*
X-37643Y4704D01*
X-37589Y4693D01*
X-37541Y4651D01*
X-37501Y4588D01*
X-37474Y4513D01*
X-37460Y4429D01*
Y4344D01*
X-37474Y4259D01*
X-37501Y4185D01*
X-37541Y4122D01*
X-37589Y4080D01*
X-37643Y4069D01*
G01X-37084Y4704D02*
Y4069D01*
G01X-37240Y4704D02*
X-36928D01*
G01X-36525D02*
Y4069D01*
G01X-36681Y4704D02*
X-36369D01*
G01X-35966Y4069D02*
X-36021Y4080D01*
X-36068Y4122D01*
X-36109Y4185D01*
X-36136Y4259D01*
X-36149Y4344D01*
Y4429D01*
X-36136Y4513D01*
X-36109Y4588D01*
X-36068Y4651D01*
X-36021Y4693D01*
X-35966Y4704D01*
X-35912Y4693D01*
X-35865Y4651D01*
X-35824Y4588D01*
X-35797Y4513D01*
X-35784Y4429D01*
Y4344D01*
X-35797Y4259D01*
X-35824Y4185D01*
X-35865Y4122D01*
X-35912Y4080D01*
X-35966Y4069D01*
G01X-35584D02*
Y4704D01*
X-35408Y4175D01*
X-35232Y4704D01*
Y4069D01*
G01X-34141Y4651D02*
X-34182Y4683D01*
X-34229Y4704D01*
X-34283D01*
X-34344Y4672D01*
X-34392Y4619D01*
X-34426Y4556D01*
X-34453Y4450D01*
X-34459Y4355D01*
X-34446Y4259D01*
X-34426Y4196D01*
X-34385Y4132D01*
X-34337Y4090D01*
X-34290Y4069D01*
X-34243D01*
X-34195Y4090D01*
X-34154Y4122D01*
X-34121Y4164D01*
G01X-33731Y4069D02*
X-33785Y4080D01*
X-33833Y4122D01*
X-33873Y4185D01*
X-33900Y4259D01*
X-33914Y4344D01*
Y4429D01*
X-33900Y4513D01*
X-33873Y4588D01*
X-33833Y4651D01*
X-33785Y4693D01*
X-33731Y4704D01*
X-33677Y4693D01*
X-33630Y4651D01*
X-33589Y4588D01*
X-33562Y4513D01*
X-33548Y4429D01*
Y4344D01*
X-33562Y4259D01*
X-33589Y4185D01*
X-33630Y4122D01*
X-33677Y4080D01*
X-33731Y4069D01*
G01X-33328D02*
Y4704D01*
X-33017Y4069D01*
Y4704D01*
G01X-32763Y4069D02*
Y4704D01*
X-32627D01*
X-32573Y4672D01*
X-32532Y4630D01*
X-32498Y4566D01*
X-32471Y4492D01*
X-32465Y4386D01*
X-32471Y4281D01*
X-32498Y4206D01*
X-32532Y4143D01*
X-32573Y4101D01*
X-32627Y4069D01*
X-32763D01*
G01X-32204Y4704D02*
Y4249D01*
X-32177Y4154D01*
X-32123Y4090D01*
X-32055Y4069D01*
X-31987Y4090D01*
X-31933Y4154D01*
X-31906Y4249D01*
Y4704D01*
G01X-31347Y4651D02*
X-31388Y4683D01*
X-31435Y4704D01*
X-31489D01*
X-31550Y4672D01*
X-31598Y4619D01*
X-31632Y4556D01*
X-31659Y4450D01*
X-31665Y4355D01*
X-31652Y4259D01*
X-31632Y4196D01*
X-31591Y4132D01*
X-31543Y4090D01*
X-31496Y4069D01*
X-31449D01*
X-31401Y4090D01*
X-31360Y4122D01*
X-31327Y4164D01*
G01X-30937Y4704D02*
Y4069D01*
G01X-31093Y4704D02*
X-30781D01*
G01X-30378Y4069D02*
X-30433Y4080D01*
X-30480Y4122D01*
X-30521Y4185D01*
X-30548Y4259D01*
X-30561Y4344D01*
Y4429D01*
X-30548Y4513D01*
X-30521Y4588D01*
X-30480Y4651D01*
X-30433Y4693D01*
X-30378Y4704D01*
X-30324Y4693D01*
X-30277Y4651D01*
X-30236Y4588D01*
X-30209Y4513D01*
X-30196Y4429D01*
Y4344D01*
X-30209Y4259D01*
X-30236Y4185D01*
X-30277Y4122D01*
X-30324Y4080D01*
X-30378Y4069D01*
G01X-29955D02*
Y4704D01*
X-29786D01*
X-29732Y4672D01*
X-29698Y4630D01*
X-29684Y4545D01*
X-29698Y4460D01*
X-29738Y4408D01*
X-29786Y4376D01*
X-29955D01*
G01X-29786D02*
X-29684Y4069D01*
G01X-28790Y4281D02*
X-28614D01*
G01X-27435Y4651D02*
X-27476Y4683D01*
X-27523Y4704D01*
X-27578D01*
X-27639Y4672D01*
X-27686Y4619D01*
X-27720Y4556D01*
X-27747Y4450D01*
X-27754Y4355D01*
X-27740Y4259D01*
X-27720Y4196D01*
X-27679Y4132D01*
X-27632Y4090D01*
X-27584Y4069D01*
X-27537D01*
X-27490Y4090D01*
X-27449Y4122D01*
X-27415Y4164D01*
G01X-27026Y4069D02*
X-27080Y4080D01*
X-27127Y4122D01*
X-27168Y4185D01*
X-27195Y4259D01*
X-27208Y4344D01*
Y4429D01*
X-27195Y4513D01*
X-27168Y4588D01*
X-27127Y4651D01*
X-27080Y4693D01*
X-27026Y4704D01*
X-26971Y4693D01*
X-26924Y4651D01*
X-26883Y4588D01*
X-26856Y4513D01*
X-26843Y4429D01*
Y4344D01*
X-26856Y4259D01*
X-26883Y4185D01*
X-26924Y4122D01*
X-26971Y4080D01*
X-27026Y4069D01*
G01X-26602D02*
Y4704D01*
X-26440D01*
X-26386Y4672D01*
X-26345Y4598D01*
X-26331Y4513D01*
X-26345Y4429D01*
X-26379Y4365D01*
X-26440Y4334D01*
X-26602D01*
G01X-26044Y4069D02*
Y4704D01*
X-25881D01*
X-25827Y4672D01*
X-25786Y4598D01*
X-25772Y4513D01*
X-25786Y4429D01*
X-25820Y4365D01*
X-25881Y4334D01*
X-26044D01*
G01X-25214Y4069D02*
X-25485D01*
Y4704D01*
X-25214D01*
G01X-25322Y4397D02*
X-25485D01*
G01X-24926Y4069D02*
Y4704D01*
X-24756D01*
X-24702Y4672D01*
X-24668Y4630D01*
X-24655Y4545D01*
X-24668Y4460D01*
X-24709Y4408D01*
X-24756Y4376D01*
X-24926D01*
G01X-24756D02*
X-24655Y4069D01*
G01X-23673Y4704D02*
X-23727Y4683D01*
X-23768Y4630D01*
X-23795Y4566D01*
X-23815Y4482D01*
X-23822Y4386D01*
X-23815Y4291D01*
X-23795Y4206D01*
X-23768Y4143D01*
X-23727Y4090D01*
X-23673Y4069D01*
X-23619Y4090D01*
X-23578Y4143D01*
X-23551Y4206D01*
X-23531Y4291D01*
X-23524Y4386D01*
X-23531Y4482D01*
X-23551Y4566D01*
X-23578Y4630D01*
X-23619Y4683D01*
X-23673Y4704D01*
G01X-23114Y4048D02*
X-23128Y4058D01*
Y4080D01*
X-23114Y4090D01*
X-23100Y4080D01*
Y4058D01*
X-23114Y4048D01*
G01X-22555Y4704D02*
X-22609Y4683D01*
X-22650Y4630D01*
X-22677Y4566D01*
X-22697Y4482D01*
X-22704Y4386D01*
X-22697Y4291D01*
X-22677Y4206D01*
X-22650Y4143D01*
X-22609Y4090D01*
X-22555Y4069D01*
X-22501Y4090D01*
X-22460Y4143D01*
X-22433Y4206D01*
X-22413Y4291D01*
X-22406Y4386D01*
X-22413Y4482D01*
X-22433Y4566D01*
X-22460Y4630D01*
X-22501Y4683D01*
X-22555Y4704D01*
G01X-22145Y4196D02*
X-22105Y4122D01*
X-22051Y4080D01*
X-21990Y4069D01*
X-21935Y4080D01*
X-21881Y4132D01*
X-21847Y4196D01*
X-21841Y4259D01*
X-21854Y4334D01*
X-21902Y4386D01*
X-21949Y4408D01*
X-22010D01*
G01X-21949D02*
X-21908Y4439D01*
X-21874Y4492D01*
X-21861Y4556D01*
X-21874Y4619D01*
X-21908Y4672D01*
X-21969Y4704D01*
X-22030Y4693D01*
X-22091Y4651D01*
G01X-21438Y4704D02*
X-21492Y4683D01*
X-21532Y4630D01*
X-21560Y4566D01*
X-21580Y4482D01*
X-21587Y4386D01*
X-21580Y4291D01*
X-21560Y4206D01*
X-21532Y4143D01*
X-21492Y4090D01*
X-21438Y4069D01*
X-21383Y4090D01*
X-21343Y4143D01*
X-21316Y4206D01*
X-21295Y4291D01*
X-21289Y4386D01*
X-21295Y4482D01*
X-21316Y4566D01*
X-21343Y4630D01*
X-21383Y4683D01*
X-21438Y4704D01*
G01X-20798Y4069D02*
Y4704D01*
X-21048Y4249D01*
X-20710D01*
G01X-20320Y4069D02*
X-20273Y4080D01*
X-20218Y4111D01*
X-20184Y4164D01*
X-20171Y4238D01*
X-20184Y4312D01*
X-20225Y4376D01*
X-20286Y4408D01*
X-20354D01*
X-20394Y4429D01*
X-20428Y4482D01*
X-20442Y4556D01*
X-20422Y4630D01*
X-20374Y4683D01*
X-20320Y4704D01*
X-20266Y4683D01*
X-20218Y4630D01*
X-20198Y4556D01*
X-20212Y4482D01*
X-20246Y4429D01*
X-20286Y4408D01*
X-20354D01*
X-20415Y4376D01*
X-20456Y4312D01*
X-20469Y4238D01*
X-20456Y4164D01*
X-20422Y4111D01*
X-20367Y4080D01*
X-20320Y4069D01*
G01X-19378D02*
Y4704D01*
X-19202Y4175D01*
X-19026Y4704D01*
Y4069D01*
G01X-18820D02*
Y4704D01*
X-18644Y4175D01*
X-18468Y4704D01*
Y4069D01*
G01X-18119Y3857D02*
X-18186Y3963D01*
X-18220Y4069D01*
Y4492D01*
X-18186Y4598D01*
X-18119Y4704D01*
G01X-17600Y4281D02*
X-17438D01*
G01X-17526Y4418D02*
Y4143D01*
G01X-16967Y4704D02*
X-17021Y4683D01*
X-17062Y4630D01*
X-17089Y4566D01*
X-17109Y4482D01*
X-17116Y4386D01*
X-17109Y4291D01*
X-17089Y4206D01*
X-17062Y4143D01*
X-17021Y4090D01*
X-16967Y4069D01*
X-16913Y4090D01*
X-16872Y4143D01*
X-16845Y4206D01*
X-16825Y4291D01*
X-16818Y4386D01*
X-16825Y4482D01*
X-16845Y4566D01*
X-16872Y4630D01*
X-16913Y4683D01*
X-16967Y4704D01*
G01X-16530Y4048D02*
X-16286Y4704D01*
G01X-15938Y4281D02*
X-15762D01*
G01X-15291Y4704D02*
X-15345Y4683D01*
X-15386Y4630D01*
X-15413Y4566D01*
X-15433Y4482D01*
X-15440Y4386D01*
X-15433Y4291D01*
X-15413Y4206D01*
X-15386Y4143D01*
X-15345Y4090D01*
X-15291Y4069D01*
X-15237Y4090D01*
X-15196Y4143D01*
X-15169Y4206D01*
X-15149Y4291D01*
X-15142Y4386D01*
X-15149Y4482D01*
X-15169Y4566D01*
X-15196Y4630D01*
X-15237Y4683D01*
X-15291Y4704D01*
G01X-14698Y3857D02*
X-14630Y3963D01*
X-14596Y4069D01*
Y4492D01*
X-14630Y4598D01*
X-14698Y4704D01*
G01X-38909Y275D02*
X-38611Y741D01*
G01X-38760Y825D02*
Y190D01*
G01X-38611Y275D02*
X-38909Y741D01*
G01X-38964Y508D02*
X-38557D01*
G01X-37226Y381D02*
X-37172Y328D01*
X-37111Y296D01*
X-37057D01*
X-37003Y328D01*
X-36962Y381D01*
X-36942Y455D01*
X-36955Y529D01*
X-36989Y592D01*
X-37050Y635D01*
X-37131Y656D01*
X-37179Y698D01*
X-37199Y772D01*
X-37186Y846D01*
X-37152Y899D01*
X-37104Y931D01*
X-37057D01*
X-37010Y910D01*
X-36969Y857D01*
G01X-36674Y931D02*
Y476D01*
X-36647Y381D01*
X-36593Y317D01*
X-36525Y296D01*
X-36458Y317D01*
X-36403Y381D01*
X-36376Y476D01*
Y931D01*
G01X-36102Y296D02*
Y931D01*
X-35932D01*
X-35878Y899D01*
X-35844Y857D01*
X-35831Y772D01*
X-35844Y688D01*
X-35885Y635D01*
X-35932Y603D01*
X-36102D01*
G01X-35932D02*
X-35831Y296D01*
G01X-35536D02*
Y931D01*
X-35279D01*
G01X-35374Y624D02*
X-35536D01*
G01X-35018Y296D02*
X-34849Y931D01*
X-34680Y296D01*
G01X-34740Y518D02*
X-34957D01*
G01X-34141Y878D02*
X-34182Y910D01*
X-34229Y931D01*
X-34283D01*
X-34344Y899D01*
X-34392Y846D01*
X-34426Y783D01*
X-34453Y677D01*
X-34459Y582D01*
X-34446Y487D01*
X-34426Y423D01*
X-34385Y360D01*
X-34337Y317D01*
X-34290Y296D01*
X-34243D01*
X-34195Y317D01*
X-34154Y349D01*
X-34121Y391D01*
G01X-33596Y296D02*
X-33867D01*
Y931D01*
X-33596D01*
G01X-33704Y624D02*
X-33867D01*
G01X-32702Y508D02*
X-32526D01*
G01X-31665Y296D02*
X-31496Y931D01*
X-31327Y296D01*
G01X-31388Y518D02*
X-31604D01*
G01X-31018Y931D02*
X-30856D01*
G01X-30937D02*
Y296D01*
G01X-31018D02*
X-30856D01*
G01X-30514D02*
Y931D01*
X-30344D01*
X-30290Y899D01*
X-30256Y857D01*
X-30243Y772D01*
X-30256Y688D01*
X-30297Y635D01*
X-30344Y603D01*
X-30514D01*
G01X-30344D02*
X-30243Y296D01*
G01X-29261Y931D02*
X-29315Y910D01*
X-29356Y857D01*
X-29383Y794D01*
X-29403Y709D01*
X-29410Y614D01*
X-29403Y518D01*
X-29383Y434D01*
X-29356Y370D01*
X-29315Y317D01*
X-29261Y296D01*
X-29207Y317D01*
X-29166Y370D01*
X-29139Y434D01*
X-29119Y518D01*
X-29112Y614D01*
X-29119Y709D01*
X-29139Y794D01*
X-29166Y857D01*
X-29207Y910D01*
X-29261Y931D01*
G01X-28319Y296D02*
Y931D01*
X-28143Y402D01*
X-27967Y931D01*
Y296D01*
G01X-27760D02*
Y931D01*
X-27584Y402D01*
X-27408Y931D01*
Y296D01*
G01X-27060Y84D02*
X-27127Y190D01*
X-27161Y296D01*
Y720D01*
X-27127Y825D01*
X-27060Y931D01*
G01X-26541Y508D02*
X-26379D01*
G01X-26467Y646D02*
Y370D01*
G01X-25908Y931D02*
X-25962Y910D01*
X-26003Y857D01*
X-26030Y794D01*
X-26050Y709D01*
X-26057Y614D01*
X-26050Y518D01*
X-26030Y434D01*
X-26003Y370D01*
X-25962Y317D01*
X-25908Y296D01*
X-25854Y317D01*
X-25813Y370D01*
X-25786Y434D01*
X-25766Y518D01*
X-25759Y614D01*
X-25766Y709D01*
X-25786Y794D01*
X-25813Y857D01*
X-25854Y910D01*
X-25908Y931D01*
G01X-25471Y275D02*
X-25227Y931D01*
G01X-24878Y508D02*
X-24702D01*
G01X-24232Y931D02*
X-24286Y910D01*
X-24326Y857D01*
X-24354Y794D01*
X-24374Y709D01*
X-24381Y614D01*
X-24374Y518D01*
X-24354Y434D01*
X-24326Y370D01*
X-24286Y317D01*
X-24232Y296D01*
X-24177Y317D01*
X-24137Y370D01*
X-24110Y434D01*
X-24089Y518D01*
X-24083Y614D01*
X-24089Y709D01*
X-24110Y794D01*
X-24137Y857D01*
X-24177Y910D01*
X-24232Y931D01*
G01X-23639Y84D02*
X-23571Y190D01*
X-23537Y296D01*
Y720D01*
X-23571Y825D01*
X-23639Y931D01*
G01X-38909Y26481D02*
X-38611Y26947D01*
G01X-38760Y27031D02*
Y26396D01*
G01X-38611Y26481D02*
X-38909Y26947D01*
G01X-38964Y26714D02*
X-38557D01*
G01X-37233Y26502D02*
Y27137D01*
X-37098D01*
X-37043Y27105D01*
X-37003Y27063D01*
X-36969Y27000D01*
X-36942Y26925D01*
X-36935Y26820D01*
X-36942Y26714D01*
X-36969Y26640D01*
X-37003Y26576D01*
X-37043Y26534D01*
X-37098Y26502D01*
X-37233D01*
G01X-36606Y27137D02*
X-36444D01*
G01X-36525D02*
Y26502D01*
G01X-36606D02*
X-36444D01*
G01X-35831D02*
X-36102D01*
Y27137D01*
X-35831D01*
G01X-35939Y26830D02*
X-36102D01*
G01X-35543Y27137D02*
Y26502D01*
X-35272D01*
G01X-34713D02*
X-34984D01*
Y27137D01*
X-34713D01*
G01X-34822Y26830D02*
X-34984D01*
G01X-34141Y27084D02*
X-34182Y27116D01*
X-34229Y27137D01*
X-34283D01*
X-34344Y27105D01*
X-34392Y27052D01*
X-34426Y26989D01*
X-34453Y26883D01*
X-34459Y26788D01*
X-34446Y26693D01*
X-34426Y26629D01*
X-34385Y26566D01*
X-34337Y26523D01*
X-34290Y26502D01*
X-34243D01*
X-34195Y26523D01*
X-34154Y26555D01*
X-34121Y26597D01*
G01X-33731Y27137D02*
Y26502D01*
G01X-33887Y27137D02*
X-33575D01*
G01X-33308Y26502D02*
Y27137D01*
X-33138D01*
X-33084Y27105D01*
X-33050Y27063D01*
X-33037Y26978D01*
X-33050Y26894D01*
X-33091Y26841D01*
X-33138Y26809D01*
X-33308D01*
G01X-33138D02*
X-33037Y26502D01*
G01X-32695Y27137D02*
X-32532D01*
G01X-32614D02*
Y26502D01*
G01X-32695D02*
X-32532D01*
G01X-31906Y27084D02*
X-31946Y27116D01*
X-31994Y27137D01*
X-32048D01*
X-32109Y27105D01*
X-32156Y27052D01*
X-32190Y26989D01*
X-32217Y26883D01*
X-32224Y26788D01*
X-32211Y26693D01*
X-32190Y26629D01*
X-32150Y26566D01*
X-32102Y26523D01*
X-32055Y26502D01*
X-32007D01*
X-31960Y26523D01*
X-31919Y26555D01*
X-31886Y26597D01*
G01X-31025Y26714D02*
X-30849D01*
G01X-29948Y26502D02*
Y27137D01*
X-29691D01*
G01X-29786Y26830D02*
X-29948D01*
G01X-29396Y26502D02*
Y27137D01*
X-29227D01*
X-29173Y27105D01*
X-29139Y27063D01*
X-29125Y26978D01*
X-29139Y26894D01*
X-29180Y26841D01*
X-29227Y26809D01*
X-29396D01*
G01X-29227D02*
X-29125Y26502D01*
G01X-28790Y26714D02*
X-28614D01*
G01X-28062Y26502D02*
Y27137D01*
X-28312Y26682D01*
X-27974D01*
G01X-27026Y27137D02*
X-27080Y27116D01*
X-27120Y27063D01*
X-27148Y27000D01*
X-27168Y26915D01*
X-27175Y26820D01*
X-27168Y26724D01*
X-27148Y26640D01*
X-27120Y26576D01*
X-27080Y26523D01*
X-27026Y26502D01*
X-26971Y26523D01*
X-26931Y26576D01*
X-26904Y26640D01*
X-26883Y26724D01*
X-26877Y26820D01*
X-26883Y26915D01*
X-26904Y27000D01*
X-26931Y27063D01*
X-26971Y27116D01*
X-27026Y27137D01*
G01X-26467Y26481D02*
X-26480Y26492D01*
Y26513D01*
X-26467Y26523D01*
X-26453Y26513D01*
Y26492D01*
X-26467Y26481D01*
G01X-26037Y27031D02*
X-25996Y27095D01*
X-25949Y27126D01*
X-25894Y27137D01*
X-25827Y27116D01*
X-25779Y27063D01*
X-25766Y27000D01*
X-25772Y26936D01*
X-25800Y26883D01*
X-25935Y26777D01*
X-25996Y26703D01*
X-26037Y26597D01*
X-26050Y26502D01*
X-25766D01*
G01X-25349Y27137D02*
X-25403Y27116D01*
X-25444Y27063D01*
X-25471Y27000D01*
X-25491Y26915D01*
X-25498Y26820D01*
X-25491Y26724D01*
X-25471Y26640D01*
X-25444Y26576D01*
X-25403Y26523D01*
X-25349Y26502D01*
X-25295Y26523D01*
X-25254Y26576D01*
X-25227Y26640D01*
X-25207Y26724D01*
X-25200Y26820D01*
X-25207Y26915D01*
X-25227Y27000D01*
X-25254Y27063D01*
X-25295Y27116D01*
X-25349Y27137D01*
G01X-24939Y26629D02*
X-24899Y26555D01*
X-24845Y26513D01*
X-24784Y26502D01*
X-24729Y26513D01*
X-24675Y26566D01*
X-24641Y26629D01*
X-24635Y26693D01*
X-24648Y26767D01*
X-24696Y26820D01*
X-24743Y26841D01*
X-24804D01*
G01X-24743D02*
X-24702Y26872D01*
X-24668Y26925D01*
X-24655Y26989D01*
X-24668Y27052D01*
X-24702Y27105D01*
X-24763Y27137D01*
X-24824Y27126D01*
X-24885Y27084D01*
G01X-24360Y27031D02*
X-24320Y27095D01*
X-24272Y27126D01*
X-24218Y27137D01*
X-24150Y27116D01*
X-24103Y27063D01*
X-24089Y27000D01*
X-24096Y26936D01*
X-24123Y26883D01*
X-24259Y26777D01*
X-24320Y26703D01*
X-24360Y26597D01*
X-24374Y26502D01*
X-24089D01*
G01X-23290D02*
Y27137D01*
X-23114Y26608D01*
X-22938Y27137D01*
Y26502D01*
G01X-22731D02*
Y27137D01*
X-22555Y26608D01*
X-22379Y27137D01*
Y26502D01*
G01X-22030Y26290D02*
X-22098Y26396D01*
X-22132Y26502D01*
Y26925D01*
X-22098Y27031D01*
X-22030Y27137D01*
G01X-21512Y26714D02*
X-21350D01*
G01X-21438Y26851D02*
Y26576D01*
G01X-20879Y27137D02*
X-20933Y27116D01*
X-20974Y27063D01*
X-21001Y27000D01*
X-21021Y26915D01*
X-21028Y26820D01*
X-21021Y26724D01*
X-21001Y26640D01*
X-20974Y26576D01*
X-20933Y26523D01*
X-20879Y26502D01*
X-20825Y26523D01*
X-20784Y26576D01*
X-20757Y26640D01*
X-20737Y26724D01*
X-20730Y26820D01*
X-20737Y26915D01*
X-20757Y27000D01*
X-20784Y27063D01*
X-20825Y27116D01*
X-20879Y27137D01*
G01X-20442Y26481D02*
X-20198Y27137D01*
G01X-19849Y26714D02*
X-19673D01*
G01X-19202Y27137D02*
X-19257Y27116D01*
X-19297Y27063D01*
X-19324Y27000D01*
X-19345Y26915D01*
X-19351Y26820D01*
X-19345Y26724D01*
X-19324Y26640D01*
X-19297Y26576D01*
X-19257Y26523D01*
X-19202Y26502D01*
X-19148Y26523D01*
X-19108Y26576D01*
X-19080Y26640D01*
X-19060Y26724D01*
X-19053Y26820D01*
X-19060Y26915D01*
X-19080Y27000D01*
X-19108Y27063D01*
X-19148Y27116D01*
X-19202Y27137D01*
G01X-18610Y26290D02*
X-18542Y26396D01*
X-18508Y26502D01*
Y26925D01*
X-18542Y27031D01*
X-18610Y27137D01*
G01X-40014Y49570D02*
Y48935D01*
X-39742D01*
G01X-39319D02*
Y49570D01*
X-39400Y49443D01*
G01Y48935D02*
X-39238D01*
G01X-38202Y49570D02*
Y48935D01*
G01X-38357Y49570D02*
X-38046D01*
G01X-37643Y48935D02*
X-37697Y48946D01*
X-37744Y48988D01*
X-37785Y49052D01*
X-37812Y49126D01*
X-37826Y49211D01*
Y49295D01*
X-37812Y49380D01*
X-37785Y49454D01*
X-37744Y49518D01*
X-37697Y49560D01*
X-37643Y49570D01*
X-37589Y49560D01*
X-37541Y49518D01*
X-37501Y49454D01*
X-37474Y49380D01*
X-37460Y49295D01*
Y49211D01*
X-37474Y49126D01*
X-37501Y49052D01*
X-37541Y48988D01*
X-37589Y48946D01*
X-37643Y48935D01*
G01X-37220D02*
Y49570D01*
X-37057D01*
X-37003Y49539D01*
X-36962Y49465D01*
X-36948Y49380D01*
X-36962Y49295D01*
X-36996Y49232D01*
X-37057Y49200D01*
X-37220D01*
G01X-35817Y49518D02*
X-35858Y49549D01*
X-35905Y49570D01*
X-35960D01*
X-36021Y49539D01*
X-36068Y49486D01*
X-36102Y49422D01*
X-36129Y49316D01*
X-36136Y49221D01*
X-36122Y49126D01*
X-36102Y49062D01*
X-36061Y48999D01*
X-36014Y48957D01*
X-35966Y48935D01*
X-35919D01*
X-35872Y48957D01*
X-35831Y48988D01*
X-35797Y49031D01*
G01X-35408Y48935D02*
X-35462Y48946D01*
X-35509Y48988D01*
X-35550Y49052D01*
X-35577Y49126D01*
X-35590Y49211D01*
Y49295D01*
X-35577Y49380D01*
X-35550Y49454D01*
X-35509Y49518D01*
X-35462Y49560D01*
X-35408Y49570D01*
X-35353Y49560D01*
X-35306Y49518D01*
X-35265Y49454D01*
X-35238Y49380D01*
X-35225Y49295D01*
Y49211D01*
X-35238Y49126D01*
X-35265Y49052D01*
X-35306Y48988D01*
X-35353Y48946D01*
X-35408Y48935D01*
G01X-35005D02*
Y49570D01*
X-34693Y48935D01*
Y49570D01*
G01X-34439Y48935D02*
Y49570D01*
X-34304D01*
X-34249Y49539D01*
X-34209Y49496D01*
X-34175Y49433D01*
X-34148Y49359D01*
X-34141Y49253D01*
X-34148Y49147D01*
X-34175Y49073D01*
X-34209Y49010D01*
X-34249Y48967D01*
X-34304Y48935D01*
X-34439D01*
G01X-33880Y49570D02*
Y49115D01*
X-33853Y49020D01*
X-33799Y48957D01*
X-33731Y48935D01*
X-33664Y48957D01*
X-33609Y49020D01*
X-33582Y49115D01*
Y49570D01*
G01X-33023Y49518D02*
X-33064Y49549D01*
X-33111Y49570D01*
X-33166D01*
X-33227Y49539D01*
X-33274Y49486D01*
X-33308Y49422D01*
X-33335Y49316D01*
X-33342Y49221D01*
X-33328Y49126D01*
X-33308Y49062D01*
X-33267Y48999D01*
X-33220Y48957D01*
X-33172Y48935D01*
X-33125D01*
X-33078Y48957D01*
X-33037Y48988D01*
X-33003Y49031D01*
G01X-32614Y49570D02*
Y48935D01*
G01X-32769Y49570D02*
X-32458D01*
G01X-32055Y48935D02*
X-32109Y48946D01*
X-32156Y48988D01*
X-32197Y49052D01*
X-32224Y49126D01*
X-32238Y49211D01*
Y49295D01*
X-32224Y49380D01*
X-32197Y49454D01*
X-32156Y49518D01*
X-32109Y49560D01*
X-32055Y49570D01*
X-32001Y49560D01*
X-31953Y49518D01*
X-31913Y49454D01*
X-31886Y49380D01*
X-31872Y49295D01*
Y49211D01*
X-31886Y49126D01*
X-31913Y49052D01*
X-31953Y48988D01*
X-32001Y48946D01*
X-32055Y48935D01*
G01X-31632D02*
Y49570D01*
X-31462D01*
X-31408Y49539D01*
X-31374Y49496D01*
X-31360Y49412D01*
X-31374Y49327D01*
X-31415Y49274D01*
X-31462Y49242D01*
X-31632D01*
G01X-31462D02*
X-31360Y48935D01*
G01X-30466Y49147D02*
X-30290D01*
G01X-29112Y49518D02*
X-29152Y49549D01*
X-29200Y49570D01*
X-29254D01*
X-29315Y49539D01*
X-29362Y49486D01*
X-29396Y49422D01*
X-29423Y49316D01*
X-29430Y49221D01*
X-29417Y49126D01*
X-29396Y49062D01*
X-29356Y48999D01*
X-29308Y48957D01*
X-29261Y48935D01*
X-29213D01*
X-29166Y48957D01*
X-29125Y48988D01*
X-29092Y49031D01*
G01X-28702Y48935D02*
X-28756Y48946D01*
X-28804Y48988D01*
X-28844Y49052D01*
X-28871Y49126D01*
X-28885Y49211D01*
Y49295D01*
X-28871Y49380D01*
X-28844Y49454D01*
X-28804Y49518D01*
X-28756Y49560D01*
X-28702Y49570D01*
X-28648Y49560D01*
X-28600Y49518D01*
X-28560Y49454D01*
X-28533Y49380D01*
X-28519Y49295D01*
Y49211D01*
X-28533Y49126D01*
X-28560Y49052D01*
X-28600Y48988D01*
X-28648Y48946D01*
X-28702Y48935D01*
G01X-28279D02*
Y49570D01*
X-28116D01*
X-28062Y49539D01*
X-28021Y49465D01*
X-28008Y49380D01*
X-28021Y49295D01*
X-28055Y49232D01*
X-28116Y49200D01*
X-28279D01*
G01X-27720Y48935D02*
Y49570D01*
X-27557D01*
X-27503Y49539D01*
X-27462Y49465D01*
X-27449Y49380D01*
X-27462Y49295D01*
X-27496Y49232D01*
X-27557Y49200D01*
X-27720D01*
G01X-26890Y48935D02*
X-27161D01*
Y49570D01*
X-26890D01*
G01X-26998Y49264D02*
X-27161D01*
G01X-26602Y48935D02*
Y49570D01*
X-26433D01*
X-26379Y49539D01*
X-26345Y49496D01*
X-26331Y49412D01*
X-26345Y49327D01*
X-26386Y49274D01*
X-26433Y49242D01*
X-26602D01*
G01X-26433D02*
X-26331Y48935D01*
G01X-25349Y49570D02*
X-25403Y49549D01*
X-25444Y49496D01*
X-25471Y49433D01*
X-25491Y49348D01*
X-25498Y49253D01*
X-25491Y49158D01*
X-25471Y49073D01*
X-25444Y49010D01*
X-25403Y48957D01*
X-25349Y48935D01*
X-25295Y48957D01*
X-25254Y49010D01*
X-25227Y49073D01*
X-25207Y49158D01*
X-25200Y49253D01*
X-25207Y49348D01*
X-25227Y49433D01*
X-25254Y49496D01*
X-25295Y49549D01*
X-25349Y49570D01*
G01X-24790Y48914D02*
X-24804Y48925D01*
Y48946D01*
X-24790Y48957D01*
X-24777Y48946D01*
Y48925D01*
X-24790Y48914D01*
G01X-24232Y49570D02*
X-24286Y49549D01*
X-24326Y49496D01*
X-24354Y49433D01*
X-24374Y49348D01*
X-24381Y49253D01*
X-24374Y49158D01*
X-24354Y49073D01*
X-24326Y49010D01*
X-24286Y48957D01*
X-24232Y48935D01*
X-24177Y48957D01*
X-24137Y49010D01*
X-24110Y49073D01*
X-24089Y49158D01*
X-24083Y49253D01*
X-24089Y49348D01*
X-24110Y49433D01*
X-24137Y49496D01*
X-24177Y49549D01*
X-24232Y49570D01*
G01X-23822Y49062D02*
X-23781Y48988D01*
X-23727Y48946D01*
X-23666Y48935D01*
X-23612Y48946D01*
X-23558Y48999D01*
X-23524Y49062D01*
X-23517Y49126D01*
X-23531Y49200D01*
X-23578Y49253D01*
X-23625Y49274D01*
X-23686D01*
G01X-23625D02*
X-23585Y49306D01*
X-23551Y49359D01*
X-23537Y49422D01*
X-23551Y49486D01*
X-23585Y49539D01*
X-23646Y49570D01*
X-23707Y49560D01*
X-23768Y49518D01*
G01X-23114Y49570D02*
X-23168Y49549D01*
X-23209Y49496D01*
X-23236Y49433D01*
X-23256Y49348D01*
X-23263Y49253D01*
X-23256Y49158D01*
X-23236Y49073D01*
X-23209Y49010D01*
X-23168Y48957D01*
X-23114Y48935D01*
X-23060Y48957D01*
X-23019Y49010D01*
X-22992Y49073D01*
X-22972Y49158D01*
X-22965Y49253D01*
X-22972Y49348D01*
X-22992Y49433D01*
X-23019Y49496D01*
X-23060Y49549D01*
X-23114Y49570D01*
G01X-22474Y48935D02*
Y49570D01*
X-22724Y49115D01*
X-22386D01*
G01X-21996Y48935D02*
X-21949Y48946D01*
X-21895Y48978D01*
X-21861Y49031D01*
X-21847Y49105D01*
X-21861Y49179D01*
X-21902Y49242D01*
X-21962Y49274D01*
X-22030D01*
X-22071Y49295D01*
X-22105Y49348D01*
X-22118Y49422D01*
X-22098Y49496D01*
X-22051Y49549D01*
X-21996Y49570D01*
X-21942Y49549D01*
X-21895Y49496D01*
X-21874Y49422D01*
X-21888Y49348D01*
X-21922Y49295D01*
X-21962Y49274D01*
X-22030D01*
X-22091Y49242D01*
X-22132Y49179D01*
X-22145Y49105D01*
X-22132Y49031D01*
X-22098Y48978D01*
X-22044Y48946D01*
X-21996Y48935D01*
G01X-21055D02*
Y49570D01*
X-20879Y49041D01*
X-20703Y49570D01*
Y48935D01*
G01X-20496D02*
Y49570D01*
X-20320Y49041D01*
X-20144Y49570D01*
Y48935D01*
G01X-19795Y48724D02*
X-19863Y48830D01*
X-19897Y48935D01*
Y49359D01*
X-19863Y49465D01*
X-19795Y49570D01*
G01X-19277Y49147D02*
X-19114D01*
G01X-19202Y49285D02*
Y49010D01*
G01X-18644Y49570D02*
X-18698Y49549D01*
X-18738Y49496D01*
X-18766Y49433D01*
X-18786Y49348D01*
X-18793Y49253D01*
X-18786Y49158D01*
X-18766Y49073D01*
X-18738Y49010D01*
X-18698Y48957D01*
X-18644Y48935D01*
X-18589Y48957D01*
X-18549Y49010D01*
X-18522Y49073D01*
X-18501Y49158D01*
X-18495Y49253D01*
X-18501Y49348D01*
X-18522Y49433D01*
X-18549Y49496D01*
X-18589Y49549D01*
X-18644Y49570D01*
G01X-18207Y48914D02*
X-17963Y49570D01*
G01X-17614Y49147D02*
X-17438D01*
G01X-16967Y49570D02*
X-17021Y49549D01*
X-17062Y49496D01*
X-17089Y49433D01*
X-17109Y49348D01*
X-17116Y49253D01*
X-17109Y49158D01*
X-17089Y49073D01*
X-17062Y49010D01*
X-17021Y48957D01*
X-16967Y48935D01*
X-16913Y48957D01*
X-16872Y49010D01*
X-16845Y49073D01*
X-16825Y49158D01*
X-16818Y49253D01*
X-16825Y49348D01*
X-16845Y49433D01*
X-16872Y49496D01*
X-16913Y49549D01*
X-16967Y49570D01*
G01X-16375Y48724D02*
X-16307Y48830D01*
X-16273Y48935D01*
Y49359D01*
X-16307Y49465D01*
X-16375Y49570D01*
G01X-38909Y52052D02*
X-38611Y52518D01*
G01X-38760Y52602D02*
Y51967D01*
G01X-38611Y52052D02*
X-38909Y52518D01*
G01X-38964Y52285D02*
X-38557D01*
G01X-37226Y52158D02*
X-37172Y52105D01*
X-37111Y52073D01*
X-37057D01*
X-37003Y52105D01*
X-36962Y52158D01*
X-36942Y52232D01*
X-36955Y52306D01*
X-36989Y52369D01*
X-37050Y52412D01*
X-37131Y52433D01*
X-37179Y52475D01*
X-37199Y52549D01*
X-37186Y52623D01*
X-37152Y52676D01*
X-37104Y52708D01*
X-37057D01*
X-37010Y52687D01*
X-36969Y52634D01*
G01X-36674Y52708D02*
Y52253D01*
X-36647Y52158D01*
X-36593Y52094D01*
X-36525Y52073D01*
X-36458Y52094D01*
X-36403Y52158D01*
X-36376Y52253D01*
Y52708D01*
G01X-36102Y52073D02*
Y52708D01*
X-35932D01*
X-35878Y52676D01*
X-35844Y52634D01*
X-35831Y52549D01*
X-35844Y52465D01*
X-35885Y52412D01*
X-35932Y52380D01*
X-36102D01*
G01X-35932D02*
X-35831Y52073D01*
G01X-35536D02*
Y52708D01*
X-35279D01*
G01X-35374Y52401D02*
X-35536D01*
G01X-35018Y52073D02*
X-34849Y52708D01*
X-34680Y52073D01*
G01X-34740Y52295D02*
X-34957D01*
G01X-34141Y52655D02*
X-34182Y52687D01*
X-34229Y52708D01*
X-34283D01*
X-34344Y52676D01*
X-34392Y52623D01*
X-34426Y52560D01*
X-34453Y52454D01*
X-34459Y52359D01*
X-34446Y52264D01*
X-34426Y52200D01*
X-34385Y52136D01*
X-34337Y52094D01*
X-34290Y52073D01*
X-34243D01*
X-34195Y52094D01*
X-34154Y52126D01*
X-34121Y52168D01*
G01X-33596Y52073D02*
X-33867D01*
Y52708D01*
X-33596D01*
G01X-33704Y52401D02*
X-33867D01*
G01X-32702Y52285D02*
X-32526D01*
G01X-31665Y52073D02*
X-31496Y52708D01*
X-31327Y52073D01*
G01X-31388Y52295D02*
X-31604D01*
G01X-31018Y52708D02*
X-30856D01*
G01X-30937D02*
Y52073D01*
G01X-31018D02*
X-30856D01*
G01X-30514D02*
Y52708D01*
X-30344D01*
X-30290Y52676D01*
X-30256Y52634D01*
X-30243Y52549D01*
X-30256Y52465D01*
X-30297Y52412D01*
X-30344Y52380D01*
X-30514D01*
G01X-30344D02*
X-30243Y52073D01*
G01X-29261Y52708D02*
X-29315Y52687D01*
X-29356Y52634D01*
X-29383Y52570D01*
X-29403Y52486D01*
X-29410Y52390D01*
X-29403Y52295D01*
X-29383Y52211D01*
X-29356Y52147D01*
X-29315Y52094D01*
X-29261Y52073D01*
X-29207Y52094D01*
X-29166Y52147D01*
X-29139Y52211D01*
X-29119Y52295D01*
X-29112Y52390D01*
X-29119Y52486D01*
X-29139Y52570D01*
X-29166Y52634D01*
X-29207Y52687D01*
X-29261Y52708D01*
G01X-28319Y52073D02*
Y52708D01*
X-28143Y52179D01*
X-27967Y52708D01*
Y52073D01*
G01X-27760D02*
Y52708D01*
X-27584Y52179D01*
X-27408Y52708D01*
Y52073D01*
G01X-27060Y51861D02*
X-27127Y51967D01*
X-27161Y52073D01*
Y52496D01*
X-27127Y52602D01*
X-27060Y52708D01*
G01X-26541Y52285D02*
X-26379D01*
G01X-26467Y52422D02*
Y52147D01*
G01X-25908Y52708D02*
X-25962Y52687D01*
X-26003Y52634D01*
X-26030Y52570D01*
X-26050Y52486D01*
X-26057Y52390D01*
X-26050Y52295D01*
X-26030Y52211D01*
X-26003Y52147D01*
X-25962Y52094D01*
X-25908Y52073D01*
X-25854Y52094D01*
X-25813Y52147D01*
X-25786Y52211D01*
X-25766Y52295D01*
X-25759Y52390D01*
X-25766Y52486D01*
X-25786Y52570D01*
X-25813Y52634D01*
X-25854Y52687D01*
X-25908Y52708D01*
G01X-25471Y52052D02*
X-25227Y52708D01*
G01X-24878Y52285D02*
X-24702D01*
G01X-24232Y52708D02*
X-24286Y52687D01*
X-24326Y52634D01*
X-24354Y52570D01*
X-24374Y52486D01*
X-24381Y52390D01*
X-24374Y52295D01*
X-24354Y52211D01*
X-24326Y52147D01*
X-24286Y52094D01*
X-24232Y52073D01*
X-24177Y52094D01*
X-24137Y52147D01*
X-24110Y52211D01*
X-24089Y52295D01*
X-24083Y52390D01*
X-24089Y52486D01*
X-24110Y52570D01*
X-24137Y52634D01*
X-24177Y52687D01*
X-24232Y52708D01*
G01X-23639Y51861D02*
X-23571Y51967D01*
X-23537Y52073D01*
Y52496D01*
X-23571Y52602D01*
X-23639Y52708D01*
G01X-36392Y100498D02*
X-35408Y103672D01*
X-34423Y100498D01*
G01X-34778Y101609D02*
X-36038D01*
G01X-33045Y103672D02*
Y100498D01*
X-31471D01*
G01X-29896Y103672D02*
Y100498D01*
X-28321D01*
G01X-23675Y103672D02*
Y101397D01*
X-23518Y100921D01*
X-23203Y100603D01*
X-22809Y100498D01*
X-22416Y100603D01*
X-22100Y100921D01*
X-21943Y101397D01*
Y103672D01*
G01X-20565Y100498D02*
Y103672D01*
X-18754Y100498D01*
Y103672D01*
G01X-16982D02*
X-16038D01*
G01X-16510D02*
Y100498D01*
G01X-16982D02*
X-16038D01*
G01X-13360Y103672D02*
Y100498D01*
G01X-14266Y103672D02*
X-12455D01*
G01X-11038Y100921D02*
X-10723Y100656D01*
X-10368Y100498D01*
X-10053D01*
X-9738Y100656D01*
X-9502Y100921D01*
X-9384Y101291D01*
X-9463Y101662D01*
X-9660Y101979D01*
X-10014Y102191D01*
X-10486Y102297D01*
X-10762Y102508D01*
X-10880Y102879D01*
X-10801Y103249D01*
X-10604Y103514D01*
X-10329Y103672D01*
X-10053D01*
X-9778Y103567D01*
X-9542Y103302D01*
G01X-4896Y100498D02*
X-3912Y103672D01*
X-2927Y100498D01*
G01X-3282Y101609D02*
X-4542D01*
G01X-1549Y100498D02*
Y103672D01*
X-565D01*
X-250Y103514D01*
X-53Y103302D01*
X25Y102879D01*
X-53Y102455D01*
X-290Y102191D01*
X-565Y102032D01*
X-1549D01*
G01X-565D02*
X25Y100498D01*
G01X3175D02*
X1600D01*
Y103672D01*
X3175D01*
G01X2545Y102138D02*
X1600D01*
G01X8214Y103672D02*
X9159D01*
G01X8687D02*
Y100498D01*
G01X8214D02*
X9159D01*
G01X10931D02*
Y103672D01*
X12742Y100498D01*
Y103672D01*
G01X17112Y100498D02*
Y103672D01*
X18136Y101027D01*
X19159Y103672D01*
Y100498D01*
G01X20813Y103672D02*
X21758D01*
G01X21285D02*
Y100498D01*
G01X20813D02*
X21758D01*
G01X23647Y103672D02*
Y100498D01*
X25222D01*
G01X26797Y103672D02*
Y100498D01*
X28372D01*
G01X30262Y103672D02*
X31206D01*
G01X30734D02*
Y100498D01*
G01X30262D02*
X31206D01*
G01X32860D02*
Y103672D01*
X33884Y101027D01*
X34907Y103672D01*
Y100498D01*
G01X37821D02*
X36246D01*
Y103672D01*
X37821D01*
G01X37191Y102138D02*
X36246D01*
G01X40183Y103672D02*
Y100498D01*
G01X39277Y103672D02*
X41088D01*
G01X44120Y100498D02*
X42545D01*
Y103672D01*
X44120D01*
G01X43490Y102138D02*
X42545D01*
G01X45695Y100498D02*
Y103672D01*
X46679D01*
X46994Y103514D01*
X47191Y103302D01*
X47269Y102879D01*
X47191Y102455D01*
X46954Y102191D01*
X46679Y102032D01*
X45695D01*
G01X46679D02*
X47269Y100498D01*
G01X48805Y100921D02*
X49120Y100656D01*
X49474Y100498D01*
X49789D01*
X50104Y100656D01*
X50340Y100921D01*
X50458Y101291D01*
X50380Y101662D01*
X50183Y101979D01*
X49828Y102191D01*
X49356Y102297D01*
X49080Y102508D01*
X48962Y102879D01*
X49041Y103249D01*
X49238Y103514D01*
X49514Y103672D01*
X49789D01*
X50065Y103567D01*
X50301Y103302D01*
G01X-33045Y98910D02*
Y60810D01*
G01X-33124Y106998D02*
Y110172D01*
X-32337D01*
X-32022Y110014D01*
X-31786Y109802D01*
X-31589Y109485D01*
X-31431Y109114D01*
X-31392Y108585D01*
X-31431Y108056D01*
X-31589Y107685D01*
X-31786Y107368D01*
X-32022Y107156D01*
X-32337Y106998D01*
X-33124D01*
G01X-29896D02*
Y110172D01*
X-28912D01*
X-28597Y110014D01*
X-28400Y109802D01*
X-28321Y109379D01*
X-28400Y108955D01*
X-28636Y108691D01*
X-28912Y108532D01*
X-29896D01*
G01X-28912D02*
X-28321Y106998D01*
G01X-26431Y110172D02*
X-25486D01*
G01X-25959D02*
Y106998D01*
G01X-26431D02*
X-25486D01*
G01X-23597Y110172D02*
Y106998D01*
X-22022D01*
G01X-20447Y110172D02*
Y106998D01*
X-18872D01*
G01X-12494Y109908D02*
X-12730Y110067D01*
X-13006Y110172D01*
X-13321D01*
X-13675Y110014D01*
X-13951Y109749D01*
X-14148Y109432D01*
X-14305Y108902D01*
X-14345Y108426D01*
X-14266Y107950D01*
X-14148Y107632D01*
X-13912Y107315D01*
X-13636Y107103D01*
X-13360Y106998D01*
X-13085D01*
X-12809Y107103D01*
X-12573Y107262D01*
X-12376Y107474D01*
G01X-11038Y106998D02*
Y110172D01*
G01X-9384D02*
Y106998D01*
G01Y108585D02*
X-11038D01*
G01X-8046Y106998D02*
X-7061Y110172D01*
X-6077Y106998D01*
G01X-6431Y108109D02*
X-7691D01*
G01X-4699Y106998D02*
Y110172D01*
X-3715D01*
X-3400Y110014D01*
X-3203Y109802D01*
X-3124Y109379D01*
X-3203Y108955D01*
X-3439Y108691D01*
X-3715Y108532D01*
X-4699D01*
G01X-3715D02*
X-3124Y106998D01*
G01X-762Y110172D02*
Y106998D01*
G01X-1668Y110172D02*
X144D01*
G01X2388Y106892D02*
X2309Y106945D01*
Y107050D01*
X2388Y107103D01*
X2466Y107050D01*
Y106945D01*
X2388Y106892D01*
G01Y108320D02*
X2309Y108373D01*
Y108479D01*
X2388Y108532D01*
X2466Y108479D01*
Y108373D01*
X2388Y108320D01*
G01X8687Y110172D02*
Y106998D01*
G01X7781Y110172D02*
X9592D01*
G01X11836Y106998D02*
X11521Y107050D01*
X11246Y107262D01*
X11010Y107580D01*
X10852Y107950D01*
X10773Y108373D01*
Y108797D01*
X10852Y109220D01*
X11010Y109590D01*
X11246Y109908D01*
X11521Y110120D01*
X11836Y110172D01*
X12151Y110120D01*
X12427Y109908D01*
X12663Y109590D01*
X12821Y109220D01*
X12899Y108797D01*
Y108373D01*
X12821Y107950D01*
X12663Y107580D01*
X12427Y107262D01*
X12151Y107050D01*
X11836Y106998D01*
G01X14199D02*
Y110172D01*
X15144D01*
X15458Y110014D01*
X15695Y109643D01*
X15773Y109220D01*
X15695Y108797D01*
X15498Y108479D01*
X15144Y108320D01*
X14199D01*
G01X21285Y110172D02*
Y106998D01*
G01X20734Y109114D02*
X21836D01*
G01X24435Y106998D02*
X24199Y107050D01*
X23962Y107262D01*
X23805Y107632D01*
X23726Y108056D01*
X23805Y108479D01*
X23962Y108850D01*
X24199Y109061D01*
X24435Y109114D01*
X24671Y109061D01*
X24907Y108850D01*
X25065Y108479D01*
X25104Y108056D01*
X25065Y107632D01*
X24907Y107262D01*
X24671Y107050D01*
X24435Y106998D01*
G01X31049Y108691D02*
X31206Y108850D01*
X31324Y109114D01*
X31403Y109485D01*
X31324Y109802D01*
X31167Y110014D01*
X30892Y110172D01*
X29828D01*
Y106998D01*
X31128D01*
X31403Y107209D01*
X31561Y107527D01*
X31640Y107897D01*
X31561Y108267D01*
X31324Y108585D01*
X31049Y108691D01*
X29828D01*
G01X33884Y106998D02*
X33569Y107050D01*
X33293Y107262D01*
X33057Y107580D01*
X32899Y107950D01*
X32821Y108373D01*
Y108797D01*
X32899Y109220D01*
X33057Y109590D01*
X33293Y109908D01*
X33569Y110120D01*
X33884Y110172D01*
X34198Y110120D01*
X34474Y109908D01*
X34710Y109590D01*
X34868Y109220D01*
X34947Y108797D01*
Y108373D01*
X34868Y107950D01*
X34710Y107580D01*
X34474Y107262D01*
X34198Y107050D01*
X33884Y106998D01*
G01X37033Y110172D02*
Y106998D01*
G01X36128Y110172D02*
X37939D01*
G01X40183D02*
Y106998D01*
G01X39277Y110172D02*
X41088D01*
G01X43332Y106998D02*
X43017Y107050D01*
X42742Y107262D01*
X42506Y107580D01*
X42348Y107950D01*
X42269Y108373D01*
Y108797D01*
X42348Y109220D01*
X42506Y109590D01*
X42742Y109908D01*
X43017Y110120D01*
X43332Y110172D01*
X43647Y110120D01*
X43923Y109908D01*
X44159Y109590D01*
X44317Y109220D01*
X44395Y108797D01*
Y108373D01*
X44317Y107950D01*
X44159Y107580D01*
X43923Y107262D01*
X43647Y107050D01*
X43332Y106998D01*
G01X45458D02*
Y110172D01*
X46482Y107527D01*
X47506Y110172D01*
Y106998D01*
G01X-27101Y94148D02*
Y97322D01*
X-25604D01*
G01X-26156Y95788D02*
X-27101D01*
G01X-23675Y97322D02*
X-22730D01*
G01X-23203D02*
Y94148D01*
G01X-23675D02*
X-22730D01*
G01X-20959D02*
Y97322D01*
X-19148Y94148D01*
Y97322D01*
G01X-17376D02*
X-16431D01*
G01X-16904D02*
Y94148D01*
G01X-17376D02*
X-16431D01*
G01X-14581Y94571D02*
X-14266Y94306D01*
X-13912Y94148D01*
X-13597D01*
X-13282Y94306D01*
X-13045Y94571D01*
X-12927Y94941D01*
X-13006Y95312D01*
X-13203Y95629D01*
X-13557Y95841D01*
X-14030Y95947D01*
X-14305Y96158D01*
X-14423Y96529D01*
X-14345Y96899D01*
X-14148Y97164D01*
X-13872Y97322D01*
X-13597D01*
X-13321Y97217D01*
X-13085Y96952D01*
G01X-11431Y94148D02*
Y97322D01*
G01X-9778D02*
Y94148D01*
G01Y95735D02*
X-11431D01*
G01X-6668Y94148D02*
X-8242D01*
Y97322D01*
X-6668D01*
G01X-7297Y95788D02*
X-8242D01*
G01X-5171Y94148D02*
Y97322D01*
X-4384D01*
X-4069Y97164D01*
X-3833Y96952D01*
X-3636Y96635D01*
X-3478Y96264D01*
X-3439Y95735D01*
X-3478Y95206D01*
X-3636Y94835D01*
X-3833Y94518D01*
X-4069Y94306D01*
X-4384Y94148D01*
X-5171D01*
G01X-2337Y93089D02*
X25D01*
G01X1167Y94571D02*
X1482Y94306D01*
X1836Y94148D01*
X2151D01*
X2466Y94306D01*
X2703Y94571D01*
X2821Y94941D01*
X2742Y95312D01*
X2545Y95629D01*
X2191Y95841D01*
X1718Y95947D01*
X1443Y96158D01*
X1325Y96529D01*
X1403Y96899D01*
X1600Y97164D01*
X1876Y97322D01*
X2151D01*
X2427Y97217D01*
X2663Y96952D01*
G01X4671Y97322D02*
X5616D01*
G01X5144D02*
Y94148D01*
G01X4671D02*
X5616D01*
G01X7545Y97322D02*
X9041D01*
X7545Y94148D01*
X9041D01*
G01X12230D02*
X10655D01*
Y97322D01*
X12230D01*
G01X11600Y95788D02*
X10655D01*
G01X-15329Y68748D02*
Y71922D01*
X-15801Y71288D01*
G01Y68748D02*
X-14856D01*
G01X-12179Y68642D02*
X-12258Y68695D01*
Y68800D01*
X-12179Y68853D01*
X-12100Y68800D01*
Y68695D01*
X-12179Y68642D01*
G01X-9030Y71922D02*
X-9345Y71817D01*
X-9581Y71552D01*
X-9738Y71235D01*
X-9856Y70811D01*
X-9896Y70335D01*
X-9856Y69859D01*
X-9738Y69435D01*
X-9581Y69118D01*
X-9345Y68853D01*
X-9030Y68748D01*
X-8715Y68853D01*
X-8478Y69118D01*
X-8321Y69435D01*
X-8203Y69859D01*
X-8164Y70335D01*
X-8203Y70811D01*
X-8321Y71235D01*
X-8478Y71552D01*
X-8715Y71817D01*
X-9030Y71922D01*
G01X-6628Y70070D02*
X-6352Y70441D01*
X-6116Y70652D01*
X-5801Y70758D01*
X-5526Y70652D01*
X-5329Y70441D01*
X-5171Y70123D01*
X-5132Y69753D01*
X-5171Y69435D01*
X-5329Y69118D01*
X-5565Y68853D01*
X-5841Y68748D01*
X-6156Y68853D01*
X-6431Y69171D01*
X-6589Y69647D01*
X-6628Y70176D01*
X-6549Y70864D01*
X-6431Y71235D01*
X-6234Y71605D01*
X-5959Y71870D01*
X-5683Y71922D01*
X-5408Y71817D01*
X-5211Y71552D01*
G01X-3479Y70070D02*
X-3203Y70441D01*
X-2967Y70652D01*
X-2652Y70758D01*
X-2376Y70652D01*
X-2179Y70441D01*
X-2022Y70123D01*
X-1982Y69753D01*
X-2022Y69435D01*
X-2179Y69118D01*
X-2416Y68853D01*
X-2691Y68748D01*
X-3006Y68853D01*
X-3282Y69171D01*
X-3439Y69647D01*
X-3479Y70176D01*
X-3400Y70864D01*
X-3282Y71235D01*
X-3085Y71605D01*
X-2809Y71870D01*
X-2534Y71922D01*
X-2258Y71817D01*
X-2061Y71552D01*
G01X419Y68748D02*
X695Y68800D01*
X1010Y68959D01*
X1206Y69224D01*
X1285Y69594D01*
X1206Y69964D01*
X970Y70282D01*
X616Y70441D01*
X222D01*
X-14Y70547D01*
X-211Y70811D01*
X-290Y71182D01*
X-171Y71552D01*
X104Y71817D01*
X419Y71922D01*
X734Y71817D01*
X1010Y71552D01*
X1128Y71182D01*
X1049Y70811D01*
X852Y70547D01*
X616Y70441D01*
X222D01*
X-132Y70282D01*
X-368Y69964D01*
X-447Y69594D01*
X-368Y69224D01*
X-171Y68959D01*
X144Y68800D01*
X419Y68748D01*
G01X-15329Y84622D02*
X-15644Y84517D01*
X-15880Y84252D01*
X-16038Y83935D01*
X-16156Y83511D01*
X-16195Y83035D01*
X-16156Y82559D01*
X-16038Y82135D01*
X-15880Y81818D01*
X-15644Y81553D01*
X-15329Y81448D01*
X-15014Y81553D01*
X-14778Y81818D01*
X-14620Y82135D01*
X-14502Y82559D01*
X-14463Y83035D01*
X-14502Y83511D01*
X-14620Y83935D01*
X-14778Y84252D01*
X-15014Y84517D01*
X-15329Y84622D01*
G01X-12179Y81342D02*
X-12258Y81395D01*
Y81500D01*
X-12179Y81553D01*
X-12100Y81500D01*
Y81395D01*
X-12179Y81342D01*
G01X-9699Y81818D02*
X-9423Y81553D01*
X-9108Y81448D01*
X-8794Y81553D01*
X-8518Y81871D01*
X-8321Y82347D01*
X-8242Y82823D01*
Y83405D01*
X-8321Y83882D01*
X-8518Y84305D01*
X-8754Y84517D01*
X-9030Y84622D01*
X-9345Y84517D01*
X-9581Y84305D01*
X-9738Y83988D01*
X-9817Y83564D01*
X-9738Y83194D01*
X-9542Y82823D01*
X-9305Y82612D01*
X-9030Y82559D01*
X-8715Y82664D01*
X-8478Y82929D01*
X-8242Y83405D01*
G01X-5880Y81448D02*
Y84622D01*
X-6352Y83988D01*
G01Y81448D02*
X-5408D01*
G01X-2258D02*
Y84622D01*
X-3715Y82347D01*
X-1746D01*
G01X892Y81448D02*
Y84622D01*
X-565Y82347D01*
X1403D01*
G01X-15329Y90972D02*
X-15644Y90867D01*
X-15880Y90602D01*
X-16038Y90285D01*
X-16156Y89861D01*
X-16195Y89385D01*
X-16156Y88909D01*
X-16038Y88485D01*
X-15880Y88168D01*
X-15644Y87903D01*
X-15329Y87798D01*
X-15014Y87903D01*
X-14778Y88168D01*
X-14620Y88485D01*
X-14502Y88909D01*
X-14463Y89385D01*
X-14502Y89861D01*
X-14620Y90285D01*
X-14778Y90602D01*
X-15014Y90867D01*
X-15329Y90972D01*
G01X-12179Y87692D02*
X-12258Y87745D01*
Y87850D01*
X-12179Y87903D01*
X-12100Y87850D01*
Y87745D01*
X-12179Y87692D01*
G01X-9108Y87798D02*
X-9030Y88485D01*
X-8912Y89067D01*
X-8754Y89597D01*
X-8557Y90179D01*
X-8242Y90972D01*
X-9817D01*
G01X-5880Y87798D02*
X-5604Y87850D01*
X-5290Y88009D01*
X-5093Y88274D01*
X-5014Y88644D01*
X-5093Y89014D01*
X-5329Y89332D01*
X-5683Y89491D01*
X-6077D01*
X-6313Y89597D01*
X-6510Y89861D01*
X-6589Y90232D01*
X-6471Y90602D01*
X-6195Y90867D01*
X-5880Y90972D01*
X-5565Y90867D01*
X-5290Y90602D01*
X-5171Y90232D01*
X-5250Y89861D01*
X-5447Y89597D01*
X-5683Y89491D01*
X-6077D01*
X-6431Y89332D01*
X-6668Y89014D01*
X-6746Y88644D01*
X-6668Y88274D01*
X-6471Y88009D01*
X-6156Y87850D01*
X-5880Y87798D01*
G01X-2809D02*
X-2730Y88485D01*
X-2612Y89067D01*
X-2455Y89597D01*
X-2258Y90179D01*
X-1943Y90972D01*
X-3518D01*
G01X892Y87798D02*
Y90972D01*
X-565Y88697D01*
X1403D01*
G01X-11471Y63032D02*
X-11234Y62662D01*
X-10920Y62450D01*
X-10565Y62398D01*
X-10250Y62450D01*
X-9935Y62715D01*
X-9738Y63032D01*
X-9699Y63350D01*
X-9778Y63720D01*
X-10053Y63985D01*
X-10329Y64091D01*
X-10683D01*
G01X-10329D02*
X-10093Y64250D01*
X-9896Y64514D01*
X-9817Y64832D01*
X-9896Y65149D01*
X-10093Y65414D01*
X-10447Y65572D01*
X-10801Y65520D01*
X-11156Y65308D01*
G01X-7455Y62292D02*
X-7534Y62345D01*
Y62450D01*
X-7455Y62503D01*
X-7376Y62450D01*
Y62345D01*
X-7455Y62292D01*
G01X-5053Y65043D02*
X-4817Y65361D01*
X-4542Y65520D01*
X-4226Y65572D01*
X-3833Y65467D01*
X-3557Y65202D01*
X-3478Y64885D01*
X-3518Y64567D01*
X-3675Y64302D01*
X-4463Y63773D01*
X-4817Y63403D01*
X-5053Y62874D01*
X-5132Y62398D01*
X-3478D01*
G01X-10604Y75098D02*
Y78272D01*
X-11077Y77638D01*
G01Y75098D02*
X-10132D01*
G01X-7455Y74992D02*
X-7534Y75045D01*
Y75150D01*
X-7455Y75203D01*
X-7376Y75150D01*
Y75045D01*
X-7455Y74992D01*
G01X-4305Y78272D02*
X-4620Y78167D01*
X-4856Y77902D01*
X-5014Y77585D01*
X-5132Y77161D01*
X-5171Y76685D01*
X-5132Y76209D01*
X-5014Y75785D01*
X-4856Y75468D01*
X-4620Y75203D01*
X-4305Y75098D01*
X-3990Y75203D01*
X-3754Y75468D01*
X-3597Y75785D01*
X-3478Y76209D01*
X-3439Y76685D01*
X-3478Y77161D01*
X-3597Y77585D01*
X-3754Y77902D01*
X-3990Y78167D01*
X-4305Y78272D01*
G01X0Y-2500D02*
Y-7580D01*
G01X30423Y-5080D02*
X0D01*
G01X4000Y-4455D02*
X0Y-5080D01*
X4000Y-5705D01*
Y-4455D01*
G01X0Y0D02*
Y50000D01*
X70000D01*
Y0D01*
X0D01*
G01X19199Y62398D02*
Y65572D01*
X21010Y62398D01*
Y65572D01*
G01X23254Y62398D02*
X22939Y62450D01*
X22663Y62662D01*
X22427Y62980D01*
X22269Y63350D01*
X22191Y63773D01*
Y64197D01*
X22269Y64620D01*
X22427Y64990D01*
X22663Y65308D01*
X22939Y65520D01*
X23254Y65572D01*
X23569Y65520D01*
X23844Y65308D01*
X24080Y64990D01*
X24238Y64620D01*
X24317Y64197D01*
Y63773D01*
X24238Y63350D01*
X24080Y62980D01*
X23844Y62662D01*
X23569Y62450D01*
X23254Y62398D01*
G01X25498D02*
Y65572D01*
X27309Y62398D01*
Y65572D01*
G01X29041Y63456D02*
X30065D01*
G01X31915Y62398D02*
Y65572D01*
X32860D01*
X33175Y65414D01*
X33411Y65043D01*
X33490Y64620D01*
X33411Y64197D01*
X33214Y63879D01*
X32860Y63720D01*
X31915D01*
G01X35065Y65572D02*
Y62398D01*
X36640D01*
G01X38017D02*
X39002Y65572D01*
X39986Y62398D01*
G01X39632Y63509D02*
X38372D01*
G01X42151Y65572D02*
Y62398D01*
G01X41246Y65572D02*
X43057D01*
G01X46088Y62398D02*
X44514D01*
Y65572D01*
X46088D01*
G01X45458Y64038D02*
X44514D01*
G01X47584Y62398D02*
Y65572D01*
X48372D01*
X48687Y65414D01*
X48923Y65202D01*
X49120Y64885D01*
X49277Y64514D01*
X49317Y63985D01*
X49277Y63456D01*
X49120Y63085D01*
X48923Y62768D01*
X48687Y62556D01*
X48372Y62398D01*
X47584D01*
G01X18136Y98910D02*
Y60810D01*
G01X25616Y68748D02*
Y71922D01*
X26561D01*
X26876Y71764D01*
X27112Y71393D01*
X27191Y70970D01*
X27112Y70547D01*
X26915Y70229D01*
X26561Y70070D01*
X25616D01*
G01X28766Y71922D02*
Y68748D01*
X30340D01*
G01X31718D02*
X32702Y71922D01*
X33687Y68748D01*
G01X33332Y69859D02*
X32072D01*
G01X35852Y71922D02*
Y68748D01*
G01X34947Y71922D02*
X36758D01*
G01X39789Y68748D02*
X38214D01*
Y71922D01*
X39789D01*
G01X39159Y70388D02*
X38214D01*
G01X41285Y68748D02*
Y71922D01*
X42072D01*
X42388Y71764D01*
X42624Y71552D01*
X42821Y71235D01*
X42978Y70864D01*
X43017Y70335D01*
X42978Y69806D01*
X42821Y69435D01*
X42624Y69118D01*
X42388Y68906D01*
X42072Y68748D01*
X41285D01*
G01X25616Y81448D02*
Y84622D01*
X26561D01*
X26876Y84464D01*
X27112Y84093D01*
X27191Y83670D01*
X27112Y83247D01*
X26915Y82929D01*
X26561Y82770D01*
X25616D01*
G01X28766Y84622D02*
Y81448D01*
X30340D01*
G01X31718D02*
X32702Y84622D01*
X33687Y81448D01*
G01X33332Y82559D02*
X32072D01*
G01X35852Y84622D02*
Y81448D01*
G01X34947Y84622D02*
X36758D01*
G01X39789Y81448D02*
X38214D01*
Y84622D01*
X39789D01*
G01X39159Y83088D02*
X38214D01*
G01X41285Y81448D02*
Y84622D01*
X42072D01*
X42388Y84464D01*
X42624Y84252D01*
X42821Y83935D01*
X42978Y83564D01*
X43017Y83035D01*
X42978Y82506D01*
X42821Y82135D01*
X42624Y81818D01*
X42388Y81606D01*
X42072Y81448D01*
X41285D01*
G01X25616Y75098D02*
Y78272D01*
X26561D01*
X26876Y78114D01*
X27112Y77743D01*
X27191Y77320D01*
X27112Y76897D01*
X26915Y76579D01*
X26561Y76420D01*
X25616D01*
G01X28766Y78272D02*
Y75098D01*
X30340D01*
G01X31718D02*
X32702Y78272D01*
X33687Y75098D01*
G01X33332Y76209D02*
X32072D01*
G01X35852Y78272D02*
Y75098D01*
G01X34947Y78272D02*
X36758D01*
G01X39789Y75098D02*
X38214D01*
Y78272D01*
X39789D01*
G01X39159Y76738D02*
X38214D01*
G01X41285Y75098D02*
Y78272D01*
X42072D01*
X42388Y78114D01*
X42624Y77902D01*
X42821Y77585D01*
X42978Y77214D01*
X43017Y76685D01*
X42978Y76156D01*
X42821Y75785D01*
X42624Y75468D01*
X42388Y75256D01*
X42072Y75098D01*
X41285D01*
G01X25616Y87798D02*
Y90972D01*
X26561D01*
X26876Y90814D01*
X27112Y90443D01*
X27191Y90020D01*
X27112Y89597D01*
X26915Y89279D01*
X26561Y89120D01*
X25616D01*
G01X28766Y90972D02*
Y87798D01*
X30340D01*
G01X31718D02*
X32702Y90972D01*
X33687Y87798D01*
G01X33332Y88909D02*
X32072D01*
G01X35852Y90972D02*
Y87798D01*
G01X34947Y90972D02*
X36758D01*
G01X39789Y87798D02*
X38214D01*
Y90972D01*
X39789D01*
G01X39159Y89438D02*
X38214D01*
G01X41285Y87798D02*
Y90972D01*
X42072D01*
X42388Y90814D01*
X42624Y90602D01*
X42821Y90285D01*
X42978Y89914D01*
X43017Y89385D01*
X42978Y88856D01*
X42821Y88485D01*
X42624Y88168D01*
X42388Y87956D01*
X42072Y87798D01*
X41285D01*
G01X25616Y94148D02*
Y97322D01*
X26561D01*
X26876Y97164D01*
X27112Y96793D01*
X27191Y96370D01*
X27112Y95947D01*
X26915Y95629D01*
X26561Y95470D01*
X25616D01*
G01X28766Y97322D02*
Y94148D01*
X30340D01*
G01X31718D02*
X32702Y97322D01*
X33687Y94148D01*
G01X33332Y95259D02*
X32072D01*
G01X35852Y97322D02*
Y94148D01*
G01X34947Y97322D02*
X36758D01*
G01X39789Y94148D02*
X38214D01*
Y97322D01*
X39789D01*
G01X39159Y95788D02*
X38214D01*
G01X41285Y94148D02*
Y97322D01*
X42072D01*
X42388Y97164D01*
X42624Y96952D01*
X42821Y96635D01*
X42978Y96264D01*
X43017Y95735D01*
X42978Y95206D01*
X42821Y94835D01*
X42624Y94518D01*
X42388Y94306D01*
X42072Y94148D01*
X41285D01*
G01X33906Y-6668D02*
X33985Y-5980D01*
X34103Y-5398D01*
X34261Y-4868D01*
X34458Y-4286D01*
X34773Y-3492D01*
X33198D01*
G01X37135D02*
X36820Y-3598D01*
X36584Y-3863D01*
X36426Y-4180D01*
X36308Y-4604D01*
X36269Y-5080D01*
X36308Y-5556D01*
X36426Y-5980D01*
X36584Y-6297D01*
X36820Y-6562D01*
X37135Y-6668D01*
X37450Y-6562D01*
X37686Y-6297D01*
X37844Y-5980D01*
X37962Y-5556D01*
X38001Y-5080D01*
X37962Y-4604D01*
X37844Y-4180D01*
X37686Y-3863D01*
X37450Y-3598D01*
X37135Y-3492D01*
G01X40697Y-5080D02*
X70000D01*
G01X50419Y98910D02*
Y60810D01*
G01X59395Y63032D02*
X59632Y62662D01*
X59946Y62450D01*
X60301Y62398D01*
X60616Y62450D01*
X60931Y62715D01*
X61128Y63032D01*
X61167Y63350D01*
X61088Y63720D01*
X60813Y63985D01*
X60537Y64091D01*
X60183D01*
G01X60537D02*
X60773Y64250D01*
X60970Y64514D01*
X61049Y64832D01*
X60970Y65149D01*
X60773Y65414D01*
X60419Y65572D01*
X60065Y65520D01*
X59710Y65308D01*
G01X60734Y68748D02*
Y71922D01*
X59277Y69647D01*
X61246D01*
G01X60262Y81448D02*
X60537Y81500D01*
X60852Y81659D01*
X61049Y81924D01*
X61128Y82294D01*
X61049Y82664D01*
X60813Y82982D01*
X60458Y83141D01*
X60065D01*
X59828Y83247D01*
X59632Y83511D01*
X59553Y83882D01*
X59671Y84252D01*
X59946Y84517D01*
X60262Y84622D01*
X60576Y84517D01*
X60852Y84252D01*
X60970Y83882D01*
X60891Y83511D01*
X60695Y83247D01*
X60458Y83141D01*
X60065D01*
X59710Y82982D01*
X59474Y82664D01*
X59395Y82294D01*
X59474Y81924D01*
X59671Y81659D01*
X59986Y81500D01*
X60262Y81448D01*
G01X59513Y77743D02*
X59750Y78061D01*
X60025Y78220D01*
X60340Y78272D01*
X60734Y78167D01*
X61010Y77902D01*
X61088Y77585D01*
X61049Y77267D01*
X60891Y77002D01*
X60104Y76473D01*
X59750Y76103D01*
X59513Y75574D01*
X59435Y75098D01*
X61088D01*
G01X59592Y88168D02*
X59868Y87903D01*
X60183Y87798D01*
X60498Y87903D01*
X60773Y88221D01*
X60970Y88697D01*
X61049Y89173D01*
Y89755D01*
X60970Y90232D01*
X60773Y90655D01*
X60537Y90867D01*
X60262Y90972D01*
X59946Y90867D01*
X59710Y90655D01*
X59553Y90338D01*
X59474Y89914D01*
X59553Y89544D01*
X59750Y89173D01*
X59986Y88962D01*
X60262Y88909D01*
X60576Y89014D01*
X60813Y89279D01*
X61049Y89755D01*
G01X57112Y94148D02*
X56797Y94200D01*
X56521Y94412D01*
X56285Y94730D01*
X56128Y95100D01*
X56049Y95523D01*
Y95947D01*
X56128Y96370D01*
X56285Y96740D01*
X56521Y97058D01*
X56797Y97270D01*
X57112Y97322D01*
X57427Y97270D01*
X57702Y97058D01*
X57939Y96740D01*
X58096Y96370D01*
X58175Y95947D01*
Y95523D01*
X58096Y95100D01*
X57939Y94730D01*
X57702Y94412D01*
X57427Y94200D01*
X57112Y94148D01*
G01X57427Y94994D02*
X57899Y94148D01*
G01X60262Y97322D02*
Y94148D01*
G01X59356Y97322D02*
X61167D01*
G01X63411Y94148D02*
Y95576D01*
X62624Y97322D01*
G01X64198D02*
X63411Y95576D01*
G01X70000Y-2500D02*
Y-7580D01*
G01X66000Y-5705D02*
X70000Y-5080D01*
X66000Y-4455D01*
Y-5705D01*
G01X72500Y0D02*
X78700D01*
G01X76200Y21431D02*
Y0D01*
G01X75575Y4000D02*
X76200Y0D01*
X76825Y4000D01*
X75575D01*
G01X73759Y24289D02*
X73995Y24024D01*
X74271Y23865D01*
X74625Y23812D01*
X74980Y23918D01*
X75255Y24130D01*
X75452Y24500D01*
X75491Y24924D01*
X75413Y25347D01*
X75216Y25612D01*
X74940Y25823D01*
X74665Y25876D01*
X74389Y25823D01*
X74035Y25612D01*
X74153Y26988D01*
X75216D01*
G01X77775D02*
X77460Y26882D01*
X77224Y26617D01*
X77066Y26300D01*
X76948Y25876D01*
X76909Y25400D01*
X76948Y24924D01*
X77066Y24500D01*
X77224Y24183D01*
X77460Y23918D01*
X77775Y23812D01*
X78090Y23918D01*
X78326Y24183D01*
X78484Y24500D01*
X78602Y24924D01*
X78641Y25400D01*
X78602Y25876D01*
X78484Y26300D01*
X78326Y26617D01*
X78090Y26882D01*
X77775Y26988D01*
G01X76200Y29369D02*
Y50000D01*
G01X72500D02*
X78700D01*
G01X76825Y46000D02*
X76200Y50000D01*
X75575Y46000D01*
X76825D01*
M02*
