G04 ================== begin FILE IDENTIFICATION RECORD ==================*
G04 Layout Name:  D:/DORCA/FACULTATE/TCAD/allegro/PROIECT.brd*
G04 Film Name:    Layer_Copper_BOTTOM*
G04 File Format:  Gerber RS274X*
G04 File Origin:  Cadence Allegro 17.2-S025*
G04 Origin Date:  Tue Feb 03 13:52:37 2026*
G04 *
G04 Layer:  VIA CLASS/BOTTOM*
G04 Layer:  PIN/BOTTOM*
G04 Layer:  ETCH/BOTTOM*
G04 Layer:  BOARD GEOMETRY/OUTLINE*
G04 *
G04 Offset:    (0.0000 0.0000)*
G04 Mirror:    No*
G04 Mode:      Positive*
G04 Rotation:  0*
G04 FullContactRelief:  No*
G04 UndefLineWidth:     0.1000*
G04 ================== end FILE IDENTIFICATION RECORD ====================*
%FSLAX33Y33*MOMM*%
%IR0*IPPOS*OFA0.00000B0.00000*MIA0B0*SFA1.00000B1.00000*%
%ADD15O,1.524X1.016*%
%ADD10C,3.*%
%ADD14R,1.524X1.016*%
%ADD11C,1.524*%
%ADD16C,1.651*%
%ADD17C,1.508*%
%ADD13C,1.3208*%
%ADD12R,1.3208X1.3208*%
%ADD18C,.127*%
%ADD19C,1.7784*%
G75*
%LPD*%
G75*
G36*
G01X13335Y5080D02*
X10795Y7620D01*
Y19050D01*
X14605D01*
X15875Y17780D01*
Y8255D01*
X24130D01*
Y13335D01*
X24497D01*
G03X24542Y13292I649J635D01*
G03X24511Y13208I96J-84D01*
G01Y12192D01*
G03X24638Y12065I127J0D01*
G01X26162D01*
G03X26289Y12192I0J127D01*
G01Y13208D01*
G03X26258Y13292I-127J0D01*
G03X26303Y13335I-604J678D01*
G01X26670D01*
Y8255D01*
X31750D01*
X34290Y10795D01*
Y18415D01*
X34657D01*
G03X34702Y18372I649J635D01*
G03X34671Y18288I96J-84D01*
G01Y17272D01*
G03X34798Y17145I127J0D01*
G01X36322D01*
G03X36449Y17272I0J127D01*
G01Y18288D01*
G03X36418Y18372I-127J0D01*
G03X36463Y18415I-604J678D01*
G01X36830D01*
Y10795D01*
X48260D01*
X49530Y12065D01*
Y13970D01*
X52070D01*
Y10795D01*
X56515D01*
X63500Y17780D01*
Y36830D01*
X66040D01*
Y13970D01*
X57150Y5080D01*
X13335D01*
G37*
%LPC*%
G75*
G36*
G01X11912Y17120D02*
Y18440D01*
G02X12040Y18568I127J0D01*
G01X13360D01*
G02X13488Y18440I0J-127D01*
G01Y17120D01*
G02X13360Y16992I-127J0D01*
G01X12040D01*
G02X11912Y17120I0J127D01*
G37*
G54D19*
X50800Y12700D03*
X64770Y35560D03*
%LPD*%
G75*
G54D10*
X4500Y4500D03*
Y45500D03*
X65500Y4500D03*
G54D11*
X5080Y35560D03*
Y38100D03*
X50800Y12700D03*
Y15240D03*
Y22860D03*
Y25400D03*
X64770Y35560D03*
Y38100D03*
G54D12*
X12700Y17780D03*
G54D13*
Y20320D03*
Y22860D03*
G54D14*
X25400Y12700D03*
X35560Y17780D03*
G54D15*
X25400Y13970D03*
Y15240D03*
X35560Y19050D03*
Y20320D03*
G54D16*
X20320Y30480D03*
Y40640D03*
X50800Y30480D03*
Y40640D03*
G54D17*
X35560Y29220D03*
Y36820D03*
G54D18*
G01X12700Y16942D02*
Y17780D01*
G01D02*
Y18618D01*
G01X11862Y17780D02*
X12700D01*
G01D02*
X13538D01*
G01X25400Y12014D02*
Y12700D01*
G01X24460D02*
X25400D01*
G01D02*
X26340D01*
G01X35560Y17094D02*
Y17780D01*
G01X34620D02*
X35560D01*
G01D02*
X36500D01*
G01X50800Y11760D02*
Y12700D01*
G01D02*
Y13640D01*
G01X49860Y12700D02*
X50800D01*
G01D02*
X51740D01*
G01X64770Y34620D02*
Y35560D01*
G01D02*
Y36500D01*
G01X63830Y35560D02*
X64770D01*
G01D02*
X65710D01*
M02*
