G04 ================== begin FILE IDENTIFICATION RECORD ==================*
G04 Layout Name:  D:/DORCA/FACULTATE/TCAD/allegro/PROIECT.brd*
G04 Film Name:    Layer_Silkscreen_TOP*
G04 File Format:  Gerber RS274X*
G04 File Origin:  Cadence Allegro 17.2-S025*
G04 Origin Date:  Tue Feb 03 14:57:11 2026*
G04 *
G04 Layer:  REF DES/SILKSCREEN_TOP*
G04 Layer:  PACKAGE GEOMETRY/SILKSCREEN_TOP*
G04 Layer:  BOARD GEOMETRY/SILKSCREEN_TOP*
G04 Layer:  BOARD GEOMETRY/OUTLINE*
G04 *
G04 Offset:    (0.0000 0.0000)*
G04 Mirror:    No*
G04 Mode:      Positive*
G04 Rotation:  0*
G04 FullContactRelief:  No*
G04 UndefLineWidth:     0.1000*
G04 ================== end FILE IDENTIFICATION RECORD ====================*
%FSLAX33Y33*MOMM*%
%IR0*IPPOS*OFA0.00000B0.00000*MIA0B0*SFA1.00000B1.00000*%
%ADD10C,.2032*%
%ADD11C,.127*%
%ADD12C,.1*%
G75*
%LPD*%
G75*
G54D10*
G01X15240Y15240D02*
X10160D01*
G01D02*
Y25400D01*
G01D02*
X15240D01*
G01X14922Y24765D02*
Y15875D01*
G01D02*
X15240D01*
G01D02*
Y15240D01*
G01Y25400D02*
Y24765D01*
G01D02*
X14922D01*
G01X22939Y12952D02*
X23515Y12085D01*
G01D02*
X24382Y11509D01*
G01D02*
X25400Y11306D01*
G01D02*
X26418Y11509D01*
G01Y16431D02*
X25400Y16634D01*
G01D02*
X24382Y16431D01*
G01D02*
X23515Y15855D01*
G01D02*
X22939Y14988D01*
G01D02*
X22736Y13970D01*
G01D02*
X22939Y12952D01*
G01X27285Y12085D02*
Y15855D01*
G01X26418Y11509D02*
X27285Y12085D01*
G01D02*
X27305Y12106D01*
G01X27285Y15855D02*
X26418Y16431D01*
G01X33675Y20935D02*
X33099Y20068D01*
G01D02*
X32896Y19050D01*
G01D02*
X33099Y18032D01*
G01D02*
X33675Y17165D01*
G01X37445D02*
Y20935D01*
G01X33675Y17165D02*
X34542Y16589D01*
G01D02*
X35560Y16386D01*
G01D02*
X36578Y16589D01*
G01D02*
X37445Y17165D01*
G01D02*
X37465Y17186D01*
G01X37445Y20935D02*
X36578Y21511D01*
G01D02*
X35560Y21714D01*
G01D02*
X34542Y21511D01*
G01D02*
X33675Y20935D01*
G54D11*
G01X43560Y33020D02*
G03I-8000J0D01*
G54D12*
G01X6350Y34290D02*
X3810D01*
Y39370D01*
X6350D01*
Y34290D01*
G01X7142Y39323D02*
X7064Y39275D01*
X7011Y39216D01*
X6985Y39148D01*
X7011Y39070D01*
X7064Y39012D01*
X7142Y38953D01*
X7248Y38934D01*
X7772D01*
G01X7641Y38526D02*
X7720Y38468D01*
X7759Y38400D01*
X7772Y38322D01*
X7746Y38224D01*
X7680Y38156D01*
X7602Y38137D01*
X7523Y38147D01*
X7457Y38186D01*
X7326Y38380D01*
X7234Y38468D01*
X7103Y38526D01*
X6985Y38546D01*
Y38137D01*
G01X17501Y18830D02*
X15596Y18237D01*
X17501Y17644D01*
G01X15596Y16806D02*
X17501D01*
Y16214D01*
X17405Y16024D01*
X17278Y15906D01*
X17024Y15858D01*
X16770Y15906D01*
X16612Y16048D01*
X16516Y16214D01*
Y16806D01*
G01Y16214D02*
X15596Y15858D01*
G01Y14427D02*
X17501D01*
X17120Y14712D01*
G01X15596D02*
Y14143D01*
G01X17780Y34243D02*
X18567D01*
Y34000D01*
X18528Y33922D01*
X18476Y33873D01*
X18370Y33854D01*
X18266Y33873D01*
X18200Y33932D01*
X18161Y34000D01*
Y34243D01*
G01Y34000D02*
X17780Y33854D01*
G01Y33261D02*
X18567D01*
X18410Y33378D01*
G01X17780D02*
Y33144D01*
G01X26795Y35393D02*
X26859Y35489D01*
X26901Y35602D01*
Y35731D01*
X26837Y35875D01*
X26732Y35988D01*
X26605Y36068D01*
X26393Y36133D01*
X26202Y36149D01*
X26012Y36117D01*
X25885Y36068D01*
X25758Y35972D01*
X25673Y35859D01*
X25631Y35747D01*
Y35634D01*
X25673Y35522D01*
X25737Y35425D01*
X25821Y35344D01*
G01X25631Y34130D02*
Y34773D01*
X26901D01*
Y34130D01*
G01X26287Y34387D02*
Y34773D01*
G01X25631Y33574D02*
X26901D01*
X25843Y33156D01*
X26901Y32738D01*
X25631D01*
G01X26054Y32070D02*
Y31651D01*
G01X25631Y30565D02*
X26901D01*
X26647Y30758D01*
G01X25631D02*
Y30372D01*
G01X26160Y29575D02*
X26308Y29463D01*
X26393Y29366D01*
X26435Y29238D01*
X26393Y29125D01*
X26308Y29044D01*
X26181Y28980D01*
X26033Y28964D01*
X25906Y28980D01*
X25779Y29044D01*
X25673Y29141D01*
X25631Y29254D01*
X25673Y29382D01*
X25800Y29495D01*
X25991Y29559D01*
X26202Y29575D01*
X26478Y29543D01*
X26626Y29495D01*
X26774Y29414D01*
X26880Y29302D01*
X26901Y29189D01*
X26859Y29077D01*
X26753Y28996D01*
G01X26901Y27974D02*
X26859Y28103D01*
X26753Y28200D01*
X26626Y28264D01*
X26456Y28312D01*
X26266Y28328D01*
X26075Y28312D01*
X25906Y28264D01*
X25779Y28200D01*
X25673Y28103D01*
X25631Y27974D01*
X25673Y27846D01*
X25779Y27749D01*
X25906Y27685D01*
X26075Y27636D01*
X26266Y27620D01*
X26456Y27636D01*
X26626Y27685D01*
X26753Y27749D01*
X26859Y27846D01*
X26901Y27974D01*
G01X26160Y26985D02*
X26308Y26872D01*
X26393Y26775D01*
X26435Y26647D01*
X26393Y26534D01*
X26308Y26454D01*
X26181Y26389D01*
X26033Y26373D01*
X25906Y26389D01*
X25779Y26454D01*
X25673Y26550D01*
X25631Y26663D01*
X25673Y26792D01*
X25800Y26904D01*
X25991Y26968D01*
X26202Y26985D01*
X26478Y26952D01*
X26626Y26904D01*
X26774Y26824D01*
X26880Y26711D01*
X26901Y26598D01*
X26859Y26486D01*
X26753Y26405D01*
G01X21590Y39116D02*
Y32004D01*
X19050D01*
Y39116D01*
X21590D01*
G01X27661Y13668D02*
X27692Y13857D01*
X27819Y14023D01*
X28010Y14166D01*
X28232Y14260D01*
X28486Y14308D01*
X28740D01*
X28994Y14260D01*
X29216Y14166D01*
X29407Y14023D01*
X29534Y13857D01*
X29566Y13668D01*
X29534Y13478D01*
X29407Y13312D01*
X29216Y13170D01*
X28994Y13075D01*
X28740Y13028D01*
X28486D01*
X28232Y13075D01*
X28010Y13170D01*
X27819Y13312D01*
X27692Y13478D01*
X27661Y13668D01*
G01X28169Y13478D02*
X27661Y13194D01*
G01Y11763D02*
X29566D01*
X29185Y12047D01*
G01X27661D02*
Y11478D01*
G01X38285Y18748D02*
X38317Y18937D01*
X38444Y19103D01*
X38634Y19246D01*
X38856Y19340D01*
X39110Y19388D01*
X39364D01*
X39618Y19340D01*
X39841Y19246D01*
X40031Y19103D01*
X40158Y18937D01*
X40190Y18748D01*
X40158Y18558D01*
X40031Y18392D01*
X39841Y18250D01*
X39618Y18155D01*
X39364Y18108D01*
X39110D01*
X38856Y18155D01*
X38634Y18250D01*
X38444Y18392D01*
X38317Y18558D01*
X38285Y18748D01*
G01X38793Y18558D02*
X38285Y18274D01*
G01X39872Y17293D02*
X40063Y17151D01*
X40158Y16985D01*
X40190Y16795D01*
X40126Y16558D01*
X39968Y16392D01*
X39777Y16345D01*
X39587Y16369D01*
X39428Y16463D01*
X39110Y16938D01*
X38888Y17151D01*
X38571Y17293D01*
X38285Y17340D01*
Y16345D01*
G01X35100Y23992D02*
Y23816D01*
G01Y42554D02*
Y42391D01*
G01X35238Y42480D02*
X34962D01*
G01X45659Y36069D02*
X44389D01*
Y35426D01*
G01X44558Y34790D02*
X44452Y34661D01*
X44389Y34517D01*
Y34388D01*
X44452Y34259D01*
X44558Y34163D01*
X44706Y34114D01*
X44854Y34147D01*
X44982Y34227D01*
X45066Y34372D01*
X45108Y34565D01*
X45193Y34678D01*
X45341Y34726D01*
X45490Y34694D01*
X45595Y34613D01*
X45659Y34501D01*
Y34388D01*
X45616Y34275D01*
X45511Y34179D01*
G01X44389Y33157D02*
X45659D01*
X45405Y33350D01*
G01X44389D02*
Y32964D01*
G01X48082Y33735D02*
X48870D01*
Y33492D01*
X48830Y33414D01*
X48778Y33365D01*
X48673Y33346D01*
X48568Y33365D01*
X48502Y33424D01*
X48463Y33492D01*
Y33735D01*
G01Y33492D02*
X48082Y33346D01*
G01X48738Y32938D02*
X48817Y32880D01*
X48856Y32812D01*
X48870Y32734D01*
X48843Y32636D01*
X48778Y32568D01*
X48699Y32549D01*
X48620Y32559D01*
X48555Y32597D01*
X48423Y32792D01*
X48332Y32880D01*
X48200Y32938D01*
X48082Y32958D01*
Y32549D01*
G01X43241Y43442D02*
X43295Y43390D01*
X43356Y43358D01*
X43410D01*
X43464Y43390D01*
X43505Y43442D01*
X43525Y43517D01*
X43512Y43591D01*
X43478Y43654D01*
X43417Y43696D01*
X43336Y43718D01*
X43288Y43760D01*
X43268Y43834D01*
X43282Y43908D01*
X43316Y43961D01*
X43363Y43993D01*
X43410D01*
X43458Y43972D01*
X43498Y43919D01*
G01X43942Y43358D02*
X43901Y43368D01*
X43861Y43411D01*
X43834Y43485D01*
X43820Y43570D01*
X43834Y43654D01*
X43861Y43728D01*
X43901Y43770D01*
X43942Y43781D01*
X43983Y43770D01*
X44023Y43728D01*
X44050Y43654D01*
X44057Y43570D01*
X44050Y43485D01*
X44023Y43411D01*
X43983Y43368D01*
X43942Y43358D01*
G01X44501D02*
Y43993D01*
G01X45182Y43358D02*
Y43781D01*
G01Y43707D02*
X45154Y43749D01*
X45114Y43770D01*
X45066Y43781D01*
X45019Y43760D01*
X44978Y43718D01*
X44951Y43654D01*
X44938Y43570D01*
X44951Y43485D01*
X44978Y43421D01*
X45019Y43379D01*
X45066Y43358D01*
X45114Y43368D01*
X45154Y43400D01*
X45182Y43442D01*
G01X45524Y43358D02*
Y43781D01*
G01Y43696D02*
X45557Y43739D01*
X45591Y43770D01*
X45639Y43781D01*
X45673Y43770D01*
X45713Y43739D01*
G01X46089Y43570D02*
X46265D01*
G01X46600Y43358D02*
Y43993D01*
X46763D01*
X46817Y43961D01*
X46858Y43887D01*
X46872Y43802D01*
X46858Y43718D01*
X46824Y43654D01*
X46763Y43622D01*
X46600D01*
G01X47295Y43358D02*
X47254Y43368D01*
X47214Y43411D01*
X47186Y43485D01*
X47173Y43570D01*
X47186Y43654D01*
X47214Y43728D01*
X47254Y43770D01*
X47295Y43781D01*
X47335Y43770D01*
X47376Y43728D01*
X47403Y43654D01*
X47410Y43570D01*
X47403Y43485D01*
X47376Y43411D01*
X47335Y43368D01*
X47295Y43358D01*
G01X47684Y43781D02*
X47766Y43358D01*
X47854Y43781D01*
X47942Y43358D01*
X48023Y43781D01*
G01X48311Y43644D02*
X48528D01*
X48507Y43718D01*
X48473Y43760D01*
X48426Y43781D01*
X48378Y43770D01*
X48338Y43739D01*
X48311Y43665D01*
X48297Y43601D01*
Y43538D01*
X48311Y43474D01*
X48345Y43411D01*
X48385Y43368D01*
X48433Y43358D01*
X48480Y43379D01*
X48528Y43442D01*
G01X48876Y43358D02*
Y43781D01*
G01Y43696D02*
X48910Y43739D01*
X48944Y43770D01*
X48992Y43781D01*
X49025Y43770D01*
X49066Y43739D01*
G01X49428Y43644D02*
X49645D01*
X49625Y43718D01*
X49591Y43760D01*
X49544Y43781D01*
X49496Y43770D01*
X49456Y43739D01*
X49428Y43665D01*
X49415Y43601D01*
Y43538D01*
X49428Y43474D01*
X49462Y43411D01*
X49503Y43368D01*
X49550Y43358D01*
X49598Y43379D01*
X49645Y43442D01*
G01X50211Y43993D02*
Y43358D01*
G01Y43453D02*
X50184Y43400D01*
X50143Y43368D01*
X50096Y43358D01*
X50041Y43379D01*
X50001Y43432D01*
X49974Y43495D01*
X49967Y43570D01*
X49974Y43644D01*
X50001Y43707D01*
X50041Y43760D01*
X50096Y43781D01*
X50143Y43770D01*
X50177Y43749D01*
X50211Y43707D01*
G01X51071Y43358D02*
Y43993D01*
X51234D01*
X51288Y43961D01*
X51328Y43887D01*
X51342Y43802D01*
X51328Y43718D01*
X51294Y43654D01*
X51234Y43622D01*
X51071D01*
G01X51765Y43358D02*
Y43993D01*
G01X52446Y43358D02*
Y43781D01*
G01Y43707D02*
X52419Y43749D01*
X52378Y43770D01*
X52331Y43781D01*
X52283Y43760D01*
X52243Y43718D01*
X52216Y43654D01*
X52202Y43570D01*
X52216Y43485D01*
X52243Y43421D01*
X52283Y43379D01*
X52331Y43358D01*
X52378Y43368D01*
X52419Y43400D01*
X52446Y43442D01*
G01X52768Y43358D02*
Y43781D01*
G01Y43675D02*
X52795Y43728D01*
X52835Y43770D01*
X52890Y43781D01*
X52937Y43770D01*
X52978Y43728D01*
X52998Y43654D01*
Y43358D01*
G01X53442Y43993D02*
Y43358D01*
G01X53347Y43781D02*
X53536D01*
G01X54390Y43358D02*
X54559Y43993D01*
X54728Y43358D01*
G01X54668Y43580D02*
X54451D01*
G01X55118Y43358D02*
Y43993D01*
G01X55799Y43358D02*
Y43781D01*
G01Y43707D02*
X55772Y43749D01*
X55731Y43770D01*
X55684Y43781D01*
X55636Y43760D01*
X55596Y43718D01*
X55568Y43654D01*
X55555Y43570D01*
X55568Y43485D01*
X55596Y43421D01*
X55636Y43379D01*
X55684Y43358D01*
X55731Y43368D01*
X55772Y43400D01*
X55799Y43442D01*
G01X56141Y43358D02*
Y43781D01*
G01Y43696D02*
X56175Y43739D01*
X56208Y43770D01*
X56256Y43781D01*
X56290Y43770D01*
X56330Y43739D01*
G01X56591Y43358D02*
Y43781D01*
G01Y43665D02*
X56612Y43718D01*
X56645Y43760D01*
X56693Y43781D01*
X56740Y43760D01*
X56774Y43718D01*
X56794Y43665D01*
Y43358D01*
G01Y43665D02*
X56815Y43718D01*
X56849Y43760D01*
X56896Y43781D01*
X56943Y43760D01*
X56977Y43718D01*
X56998Y43654D01*
Y43358D01*
G01X57783Y43887D02*
X57824Y43950D01*
X57871Y43982D01*
X57926Y43993D01*
X57993Y43972D01*
X58041Y43919D01*
X58054Y43855D01*
X58048Y43792D01*
X58020Y43739D01*
X57885Y43633D01*
X57824Y43559D01*
X57783Y43453D01*
X57770Y43358D01*
X58054D01*
G01X58471Y43993D02*
X58417Y43972D01*
X58376Y43919D01*
X58349Y43855D01*
X58329Y43770D01*
X58322Y43675D01*
X58329Y43580D01*
X58349Y43495D01*
X58376Y43432D01*
X58417Y43379D01*
X58471Y43358D01*
X58525Y43379D01*
X58566Y43432D01*
X58593Y43495D01*
X58613Y43580D01*
X58620Y43675D01*
X58613Y43770D01*
X58593Y43855D01*
X58566Y43919D01*
X58525Y43972D01*
X58471Y43993D01*
G01X58901Y43887D02*
X58942Y43950D01*
X58989Y43982D01*
X59043Y43993D01*
X59111Y43972D01*
X59158Y43919D01*
X59172Y43855D01*
X59165Y43792D01*
X59138Y43739D01*
X59002Y43633D01*
X58942Y43559D01*
X58901Y43453D01*
X58887Y43358D01*
X59172D01*
G01X59460Y43622D02*
X59507Y43696D01*
X59548Y43739D01*
X59602Y43760D01*
X59649Y43739D01*
X59683Y43696D01*
X59710Y43633D01*
X59717Y43559D01*
X59710Y43495D01*
X59683Y43432D01*
X59643Y43379D01*
X59595Y43358D01*
X59541Y43379D01*
X59494Y43442D01*
X59466Y43538D01*
X59460Y43644D01*
X59473Y43781D01*
X59494Y43855D01*
X59527Y43929D01*
X59575Y43982D01*
X59622Y43993D01*
X59670Y43972D01*
X59704Y43919D01*
G01X43424Y46038D02*
X43559D01*
Y45847D01*
X43519Y45784D01*
X43471Y45741D01*
X43404Y45720D01*
X43336Y45741D01*
X43288Y45784D01*
X43248Y45847D01*
X43221Y45921D01*
X43207Y46006D01*
Y46080D01*
X43221Y46143D01*
X43248Y46217D01*
X43288Y46281D01*
X43329Y46323D01*
X43383Y46355D01*
X43431D01*
X43485Y46334D01*
X43525Y46292D01*
G01X43847Y45720D02*
Y46143D01*
G01Y46059D02*
X43881Y46101D01*
X43915Y46133D01*
X43962Y46143D01*
X43996Y46133D01*
X44037Y46101D01*
G01X44501Y45720D02*
X44460Y45731D01*
X44420Y45773D01*
X44392Y45847D01*
X44379Y45932D01*
X44392Y46016D01*
X44420Y46090D01*
X44460Y46133D01*
X44501Y46143D01*
X44541Y46133D01*
X44582Y46090D01*
X44609Y46016D01*
X44616Y45932D01*
X44609Y45847D01*
X44582Y45773D01*
X44541Y45731D01*
X44501Y45720D01*
G01X44944Y46143D02*
Y45847D01*
X44972Y45773D01*
X45012Y45731D01*
X45060Y45720D01*
X45107Y45731D01*
X45148Y45773D01*
X45175Y45847D01*
G01Y45720D02*
Y46143D01*
G01X45496Y45508D02*
Y46143D01*
G01Y46048D02*
X45530Y46101D01*
X45564Y46133D01*
X45618Y46143D01*
X45666Y46133D01*
X45713Y46080D01*
X45734Y46006D01*
X45740Y45932D01*
X45734Y45858D01*
X45713Y45784D01*
X45673Y45741D01*
X45618Y45720D01*
X45571Y45731D01*
X45524Y45762D01*
X45496Y45805D01*
G01X46817Y45720D02*
Y46355D01*
X46567Y45900D01*
X46905D01*
G01X47166Y46249D02*
X47207Y46313D01*
X47254Y46344D01*
X47308Y46355D01*
X47376Y46334D01*
X47424Y46281D01*
X47437Y46217D01*
X47430Y46154D01*
X47403Y46101D01*
X47268Y45995D01*
X47207Y45921D01*
X47166Y45815D01*
X47153Y45720D01*
X47437D01*
G01X47935D02*
Y46355D01*
X47684Y45900D01*
X48023D01*
G01X48453Y46038D02*
X48588D01*
Y45847D01*
X48548Y45784D01*
X48500Y45741D01*
X48433Y45720D01*
X48365Y45741D01*
X48318Y45784D01*
X48277Y45847D01*
X48250Y45921D01*
X48236Y46006D01*
Y46080D01*
X48250Y46143D01*
X48277Y46217D01*
X48318Y46281D01*
X48358Y46323D01*
X48412Y46355D01*
X48460D01*
X48514Y46334D01*
X48555Y46292D01*
G01X43234Y44933D02*
Y45568D01*
X43370D01*
X43424Y45536D01*
X43464Y45494D01*
X43498Y45430D01*
X43525Y45356D01*
X43532Y45250D01*
X43525Y45144D01*
X43498Y45070D01*
X43464Y45007D01*
X43424Y44964D01*
X43370Y44933D01*
X43234D01*
G01X43942D02*
X43901Y44943D01*
X43861Y44986D01*
X43834Y45060D01*
X43820Y45144D01*
X43834Y45229D01*
X43861Y45303D01*
X43901Y45345D01*
X43942Y45356D01*
X43983Y45345D01*
X44023Y45303D01*
X44050Y45229D01*
X44057Y45144D01*
X44050Y45060D01*
X44023Y44986D01*
X43983Y44943D01*
X43942Y44933D01*
G01X44406D02*
Y45356D01*
G01Y45271D02*
X44440Y45314D01*
X44474Y45345D01*
X44521Y45356D01*
X44555Y45345D01*
X44596Y45314D01*
G01X45168Y45303D02*
X45121Y45345D01*
X45080Y45356D01*
X45026Y45335D01*
X44985Y45292D01*
X44958Y45218D01*
X44951Y45144D01*
X44958Y45070D01*
X44985Y45007D01*
X45026Y44954D01*
X45080Y44933D01*
X45127Y44954D01*
X45168Y44996D01*
G01X45740Y44933D02*
Y45356D01*
G01Y45282D02*
X45713Y45324D01*
X45673Y45345D01*
X45625Y45356D01*
X45578Y45335D01*
X45537Y45292D01*
X45510Y45229D01*
X45496Y45144D01*
X45510Y45060D01*
X45537Y44996D01*
X45578Y44954D01*
X45625Y44933D01*
X45673Y44943D01*
X45713Y44975D01*
X45740Y45017D01*
G01X46567Y45568D02*
X46736Y44933D01*
X46905Y45568D01*
G01X47295Y45356D02*
Y44933D01*
G01Y45525D02*
X47281Y45536D01*
Y45557D01*
X47295Y45568D01*
X47308Y45557D01*
Y45536D01*
X47295Y45525D01*
G01X47962Y45303D02*
X47915Y45345D01*
X47874Y45356D01*
X47820Y45335D01*
X47779Y45292D01*
X47752Y45218D01*
X47745Y45144D01*
X47752Y45070D01*
X47779Y45007D01*
X47820Y44954D01*
X47874Y44933D01*
X47921Y44954D01*
X47962Y44996D01*
G01X48412Y45568D02*
Y44933D01*
G01X48318Y45356D02*
X48507D01*
G01X48971Y44933D02*
X48931Y44943D01*
X48890Y44986D01*
X48863Y45060D01*
X48849Y45144D01*
X48863Y45229D01*
X48890Y45303D01*
X48931Y45345D01*
X48971Y45356D01*
X49012Y45345D01*
X49052Y45303D01*
X49080Y45229D01*
X49086Y45144D01*
X49080Y45060D01*
X49052Y44986D01*
X49012Y44943D01*
X48971Y44933D01*
G01X49435D02*
Y45356D01*
G01Y45271D02*
X49469Y45314D01*
X49503Y45345D01*
X49550Y45356D01*
X49584Y45345D01*
X49625Y45314D01*
G01X43241Y44230D02*
X43295Y44177D01*
X43356Y44145D01*
X43410D01*
X43464Y44177D01*
X43505Y44230D01*
X43525Y44304D01*
X43512Y44378D01*
X43478Y44442D01*
X43417Y44484D01*
X43336Y44505D01*
X43288Y44547D01*
X43268Y44621D01*
X43282Y44696D01*
X43316Y44748D01*
X43363Y44780D01*
X43410D01*
X43458Y44759D01*
X43498Y44706D01*
G01X43942Y44568D02*
Y44145D01*
G01Y44738D02*
X43928Y44748D01*
Y44770D01*
X43942Y44780D01*
X43956Y44770D01*
Y44748D01*
X43942Y44738D01*
G01X44298Y44145D02*
Y44568D01*
G01Y44452D02*
X44318Y44505D01*
X44352Y44547D01*
X44399Y44568D01*
X44447Y44547D01*
X44480Y44505D01*
X44501Y44452D01*
Y44145D01*
G01Y44452D02*
X44521Y44505D01*
X44555Y44547D01*
X44602Y44568D01*
X44650Y44547D01*
X44684Y44505D01*
X44704Y44442D01*
Y44145D01*
G01X45060Y44568D02*
Y44145D01*
G01Y44738D02*
X45046Y44748D01*
Y44770D01*
X45060Y44780D01*
X45073Y44770D01*
Y44748D01*
X45060Y44738D01*
G01X45618Y44145D02*
X45578Y44156D01*
X45537Y44198D01*
X45510Y44272D01*
X45496Y44357D01*
X45510Y44442D01*
X45537Y44516D01*
X45578Y44558D01*
X45618Y44568D01*
X45659Y44558D01*
X45700Y44516D01*
X45727Y44442D01*
X45734Y44357D01*
X45727Y44272D01*
X45700Y44198D01*
X45659Y44156D01*
X45618Y44145D01*
G01X46062D02*
Y44568D01*
G01Y44463D02*
X46089Y44516D01*
X46130Y44558D01*
X46184Y44568D01*
X46231Y44558D01*
X46272Y44516D01*
X46292Y44442D01*
Y44145D01*
G01X46634Y44431D02*
X46851D01*
X46831Y44505D01*
X46797Y44547D01*
X46750Y44568D01*
X46702Y44558D01*
X46662Y44526D01*
X46634Y44452D01*
X46621Y44389D01*
Y44325D01*
X46634Y44262D01*
X46668Y44198D01*
X46709Y44156D01*
X46756Y44145D01*
X46804Y44166D01*
X46851Y44230D01*
G01X47193Y44219D02*
X47227Y44177D01*
X47274Y44145D01*
X47315D01*
X47356Y44166D01*
X47383Y44198D01*
X47396Y44240D01*
X47390Y44304D01*
X47362Y44336D01*
X47241Y44399D01*
X47214Y44473D01*
X47227Y44526D01*
X47254Y44558D01*
X47295Y44568D01*
X47335Y44558D01*
X47376Y44526D01*
G01X47962Y44516D02*
X47915Y44558D01*
X47874Y44568D01*
X47820Y44547D01*
X47779Y44505D01*
X47752Y44431D01*
X47745Y44357D01*
X47752Y44283D01*
X47779Y44219D01*
X47820Y44166D01*
X47874Y44145D01*
X47921Y44166D01*
X47962Y44209D01*
G01X48297Y44568D02*
Y44272D01*
X48324Y44198D01*
X48365Y44156D01*
X48412Y44145D01*
X48460Y44156D01*
X48500Y44198D01*
X48528Y44272D01*
G01Y44145D02*
Y44568D01*
G01X49381Y44145D02*
Y44780D01*
X49516D01*
X49571Y44748D01*
X49611Y44706D01*
X49645Y44643D01*
X49672Y44568D01*
X49679Y44463D01*
X49672Y44357D01*
X49645Y44283D01*
X49611Y44219D01*
X49571Y44177D01*
X49516Y44145D01*
X49381D01*
G01X50211D02*
Y44568D01*
G01Y44494D02*
X50184Y44537D01*
X50143Y44558D01*
X50096Y44568D01*
X50048Y44547D01*
X50008Y44505D01*
X49980Y44442D01*
X49967Y44357D01*
X49980Y44272D01*
X50008Y44209D01*
X50048Y44166D01*
X50096Y44145D01*
X50143Y44156D01*
X50184Y44188D01*
X50211Y44230D01*
G01X50526Y44568D02*
X50648Y44145D01*
X50770Y44568D01*
G01X51206D02*
Y44145D01*
G01Y44738D02*
X51193Y44748D01*
Y44770D01*
X51206Y44780D01*
X51220Y44770D01*
Y44748D01*
X51206Y44738D01*
G01X51887Y44780D02*
Y44145D01*
G01Y44240D02*
X51860Y44188D01*
X51819Y44156D01*
X51772Y44145D01*
X51718Y44166D01*
X51677Y44219D01*
X51650Y44283D01*
X51643Y44357D01*
X51650Y44431D01*
X51677Y44494D01*
X51718Y44547D01*
X51772Y44568D01*
X51819Y44558D01*
X51853Y44537D01*
X51887Y44494D01*
G01X52236Y44357D02*
X52412D01*
G01X52734Y44145D02*
Y44780D01*
X52869D01*
X52923Y44748D01*
X52964Y44706D01*
X52998Y44643D01*
X53025Y44568D01*
X53032Y44463D01*
X53025Y44357D01*
X52998Y44283D01*
X52964Y44219D01*
X52923Y44177D01*
X52869Y44145D01*
X52734D01*
G01X53564D02*
Y44568D01*
G01Y44494D02*
X53536Y44537D01*
X53496Y44558D01*
X53448Y44568D01*
X53401Y44547D01*
X53360Y44505D01*
X53333Y44442D01*
X53320Y44357D01*
X53333Y44272D01*
X53360Y44209D01*
X53401Y44166D01*
X53448Y44145D01*
X53496Y44156D01*
X53536Y44188D01*
X53564Y44230D01*
G01X53885Y44145D02*
Y44568D01*
G01Y44463D02*
X53912Y44516D01*
X53953Y44558D01*
X54007Y44568D01*
X54055Y44558D01*
X54095Y44516D01*
X54116Y44442D01*
Y44145D01*
G01X54559Y44568D02*
Y44145D01*
G01Y44738D02*
X54546Y44748D01*
Y44770D01*
X54559Y44780D01*
X54573Y44770D01*
Y44748D01*
X54559Y44738D01*
G01X55016Y44431D02*
X55233D01*
X55213Y44505D01*
X55179Y44547D01*
X55132Y44568D01*
X55084Y44558D01*
X55044Y44526D01*
X55016Y44452D01*
X55003Y44389D01*
Y44325D01*
X55016Y44262D01*
X55050Y44198D01*
X55091Y44156D01*
X55138Y44145D01*
X55186Y44166D01*
X55233Y44230D01*
G01X55677Y44145D02*
Y44780D01*
G01X54610Y13702D02*
X55880D01*
Y13380D01*
X55816Y13251D01*
X55732Y13155D01*
X55605Y13074D01*
X55457Y13010D01*
X55245Y12994D01*
X55033Y13010D01*
X54885Y13074D01*
X54758Y13155D01*
X54674Y13251D01*
X54610Y13380D01*
Y13702D01*
G01X55668Y12358D02*
X55795Y12261D01*
X55859Y12149D01*
X55880Y12020D01*
X55838Y11859D01*
X55732Y11747D01*
X55605Y11714D01*
X55478Y11731D01*
X55372Y11795D01*
X55160Y12117D01*
X55012Y12261D01*
X54800Y12358D01*
X54610Y12390D01*
Y11714D01*
G01X53340Y13970D02*
G03I-2540J0D01*
G01X54610Y23862D02*
X55880D01*
Y23540D01*
X55816Y23411D01*
X55732Y23315D01*
X55605Y23234D01*
X55457Y23170D01*
X55245Y23154D01*
X55033Y23170D01*
X54885Y23234D01*
X54758Y23315D01*
X54674Y23411D01*
X54610Y23540D01*
Y23862D01*
G01Y22212D02*
X55880D01*
X55626Y22405D01*
G01X54610D02*
Y22019D01*
G01X53340Y24130D02*
G03I-2540J0D01*
G01X52070Y39116D02*
Y32004D01*
X49530D01*
Y39116D01*
X52070D01*
G01X63500Y39370D02*
X66040D01*
Y34290D01*
X63500D01*
Y39370D01*
G01X66324Y39400D02*
X66246Y39351D01*
X66193Y39292D01*
X66167Y39224D01*
X66193Y39146D01*
X66246Y39088D01*
X66324Y39030D01*
X66430Y39010D01*
X66954D01*
G01X66167Y38418D02*
X66954D01*
X66797Y38534D01*
G01X66167D02*
Y38301D01*
M02*
